<svg width="52" height="20" viewBox="0 0 52 20" fill="none" xmlns="http://www.w3.org/2000/svg">
<path d="M20.9472 10.5281C20.8435 10.1995 21.3028 10.3612 21.3962 10.1982C21.4188 10.1596 21.46 9.86902 21.4658 9.79622C21.5006 9.37554 21.5154 8.4601 21.462 8.05552C21.422 7.75338 21.25 7.79912 21.136 7.58008C21.2481 7.51888 21.9599 7.12075 22.0076 7.13106C22.1712 7.16649 21.92 7.5556 22.1043 7.6503C22.543 7.34816 23.1853 7.10529 23.6961 7.37779C23.8218 7.44479 23.9751 7.69411 24.0833 7.69669C24.4647 7.51308 24.83 7.24508 25.2713 7.22833C25.5238 7.21867 25.9387 7.41065 26.0817 7.6342C26.4605 8.22624 26.0405 9.50825 26.2795 10.1254C26.407 10.4546 26.8155 10.1389 26.7498 10.5281H25.1927C25.1154 10.1557 25.5689 10.4379 25.6127 10.0771C25.6584 9.70345 25.6694 8.50777 25.614 8.14829C25.5025 7.42418 24.2328 7.49053 24.1529 8.19145C24.1104 8.56833 24.1059 9.66222 24.1568 10.0301C24.1626 10.07 24.2412 10.2749 24.256 10.2845C24.3571 10.3515 24.7121 10.1989 24.6258 10.5281H23.0687C22.992 10.1563 23.4488 10.443 23.5306 10.07C23.5866 9.8149 23.575 8.53096 23.5364 8.24428C23.4153 7.34107 22.1023 7.5279 22.0295 8.1921C21.9909 8.5432 21.9825 9.69379 22.0424 10.0217C22.121 10.4546 22.5617 10.1454 22.503 10.5287H20.9459L20.9472 10.5281Z" fill="white"/>
<path d="M35.8076 12.5569C35.7316 12.2535 36.0131 12.4087 36.1832 12.296C36.2534 12.2496 36.274 12.142 36.2798 12.0628C36.1871 10.7576 36.4009 9.28937 36.2792 8.00349C36.2495 7.69426 35.997 7.79283 35.9964 7.51001C36.1561 7.55253 36.8442 7.032 36.8925 7.08482V7.60343C36.9472 7.65819 37.4832 7.34252 37.6089 7.30579C39.5673 6.72599 40.1007 9.78864 38.1655 10.5044C38.094 10.5308 37.8131 10.6229 37.7654 10.6229H36.9633C36.9112 10.6229 36.8957 10.7382 36.8899 10.7859C36.8635 11.0114 36.8635 11.9391 36.9234 12.1253C37.0207 12.4293 37.4819 12.2973 37.5496 12.372C37.5676 12.392 37.5438 12.5092 37.5528 12.5575H35.807L35.8076 12.5569ZM37.3525 7.66141C37.1296 7.69877 36.9459 7.83084 36.9041 8.06212C36.8538 8.34235 36.8538 9.55221 36.9041 9.83245C36.9543 10.1127 37.2713 10.2989 37.5335 10.3349C38.543 10.4728 38.8754 9.28292 38.6718 8.48924C38.5011 7.82568 38.0224 7.54867 37.3525 7.66076V7.66141Z" fill="white"/>
<path d="M51.8951 6.2819C51.8416 6.27352 51.7502 6.30058 51.7128 6.27481C51.6754 6.24904 51.5395 5.73302 51.258 5.52687C50.9468 5.29881 50.1828 5.30783 49.9128 5.60933C49.6912 5.85735 49.6687 6.16852 49.735 6.48354C49.8748 7.14903 51.122 7.5536 51.5646 8.05095C52.2887 8.86396 52.1103 10.1621 51.0241 10.5293C50.5603 10.6858 49.507 10.6813 49.1127 10.3611C48.8995 10.1878 48.8692 9.43539 48.8756 9.15901L49.0592 9.16417C49.1642 9.71563 49.6042 10.289 50.1853 10.3734C51.028 10.4958 51.526 9.94046 51.3552 9.10941C51.1491 8.10506 49.112 7.95689 49.1294 6.45455C49.1443 5.13711 50.7845 4.8427 51.7779 5.28979C51.9003 5.60739 51.9067 5.94626 51.8951 6.28125V6.2819Z" fill="white"/>
<path d="M27.1743 10.5285C27.0718 10.2032 27.5099 10.3591 27.6027 10.2141C27.7109 10.046 27.5924 9.62981 27.6929 9.41915C27.6388 9.06418 27.805 8.06563 27.6001 7.81374C27.546 7.74674 27.3392 7.68103 27.363 7.57989C27.3785 7.51224 28.1155 7.19979 28.2353 7.13086C28.3042 7.13086 28.1928 7.6224 28.3313 7.65075C28.9266 7.23394 29.9921 6.964 30.3226 7.82791C30.4882 8.26148 30.3432 9.31479 30.3806 9.84563C30.3877 9.94613 30.418 10.2566 30.5069 10.2856C30.6821 10.3423 30.9688 10.2051 30.9018 10.5279H29.2976C29.2094 10.1549 29.699 10.4261 29.7576 10.1175C29.8652 9.55444 29.7035 8.73949 29.766 8.14809C29.6558 7.43558 28.3506 7.42849 28.2591 8.2866C28.2166 8.68409 28.2289 9.43719 28.2579 9.84563C28.2649 9.94806 28.2939 10.2541 28.3848 10.285C28.5568 10.343 28.7932 10.2219 28.7314 10.5279H27.1743V10.5285Z" fill="white"/>
<path d="M43.2543 8.94116C43.2543 9.87206 42.4999 10.6265 41.569 10.6265C40.6381 10.6265 39.8837 9.87206 39.8837 8.94116C39.8837 8.01025 40.6381 7.25586 41.569 7.25586C42.4999 7.25586 43.2543 8.01025 43.2543 8.94116ZM42.161 10.1819C42.7698 9.61953 42.6197 7.61534 41.683 7.5084C40.5292 7.37633 40.448 8.97723 40.7721 9.74C41.0059 10.2908 41.6546 10.6503 42.161 10.1826V10.1819Z" fill="white"/>
<path d="M26.7967 17.2278C26.7896 17.222 26.8006 17.1254 26.7967 17.0874C26.9642 17.0713 27.0608 17.0578 27.0821 16.8767C27.1626 16.1932 27.0151 15.3557 27.0821 14.6542C27.0918 14.5015 26.9004 14.4628 26.9397 14.305C27.0879 14.3031 27.22 14.1362 27.3385 14.1137C27.4686 14.0885 27.392 14.2734 27.41 14.3501C27.4461 14.3875 27.8925 14.1768 28.0046 14.1639C28.3596 14.124 28.7242 14.3333 28.826 14.6799C29.1488 14.2895 29.5005 14.0647 30.0256 14.2109C31.2831 14.5607 30.684 16.5649 29.2982 16.0238C29.0122 15.9117 29.0199 15.8151 28.8653 15.6076C28.7107 15.4002 28.6978 15.6856 28.5657 15.8118C28.2662 16.0998 27.8513 16.1178 27.4596 16.0979C27.3784 16.4032 27.4931 16.697 27.4545 17.0101L27.7875 17.0861C27.783 17.1158 27.7946 17.2272 27.7875 17.2272C27.6484 17.2272 26.836 17.2575 26.7967 17.2272V17.2278ZM29.6622 14.3127C28.9323 14.3836 29.0193 16.0128 29.7924 15.9568C30.5532 15.902 30.414 14.2399 29.6622 14.3127ZM28.2907 14.5543C28.1083 14.3701 27.6368 14.314 27.4828 14.5408C27.3482 14.7392 27.3462 15.6985 27.5814 15.8537C28.3074 16.333 28.8151 15.0832 28.2907 14.555V14.5543Z" fill="white"/>
<path d="M33.5907 17.2278C33.5836 17.222 33.5952 17.1248 33.5907 17.0868C33.7673 17.0971 33.8568 17.061 33.8761 16.8761C33.9502 16.1829 33.8143 15.3622 33.8761 14.6542C33.8858 14.5015 33.6945 14.4628 33.7338 14.305C33.8819 14.3031 34.014 14.1362 34.1325 14.1137C34.2627 14.0885 34.186 14.2734 34.204 14.3501C34.2401 14.3875 34.6866 14.1774 34.798 14.1645C35.1491 14.124 35.5627 14.3565 35.6194 14.7276C35.9557 14.2837 36.4118 14.0132 36.9729 14.2464C37.6474 14.5272 37.7099 15.5136 37.1256 15.9278C36.5896 16.3085 35.8616 16.067 35.5949 15.4833C35.3134 16.0115 34.8315 16.1494 34.2569 16.1024C34.166 16.1636 34.1963 16.8787 34.2498 17.0062C34.2762 17.07 34.5068 17.0823 34.5809 17.0868C34.5764 17.1164 34.588 17.2278 34.5809 17.2278C34.4418 17.2278 33.6294 17.2581 33.5901 17.2278H33.5907ZM36.4569 14.3108C35.7502 14.4029 35.8578 16.0708 36.6772 15.9516C37.344 15.855 37.2474 14.2077 36.4569 14.3108ZM35.0847 14.5543C34.9024 14.3701 34.4308 14.314 34.2768 14.5408C34.1422 14.7392 34.1403 15.6985 34.3754 15.8537C35.1008 16.3324 35.6046 15.0787 35.0847 14.555V14.5543Z" fill="white"/>
<path d="M35.3831 8.07502C35.1138 8.12913 35.1344 7.87595 35.0068 7.72005C34.6441 7.27618 33.7996 7.4907 34.0411 8.16714C34.1822 8.56141 35.1222 8.7128 35.3586 9.34994C35.702 10.2751 34.7517 10.7247 33.9484 10.6184C33.2726 10.5295 33.3254 10.1082 33.308 9.53677C33.3686 9.53999 33.4452 9.52002 33.4987 9.55867C33.5399 9.58831 33.6971 10.0457 33.8266 10.1746C34.1545 10.4999 34.8174 10.4812 34.867 9.93876C34.9392 9.15088 33.6102 9.11093 33.5013 8.33078C33.3692 7.38183 34.2898 7.09322 35.0571 7.29357C35.4024 7.38376 35.3695 7.77996 35.3837 8.07502H35.3831Z" fill="white"/>
<path d="M43.7805 10.5282C43.7044 10.217 43.9963 10.3601 44.1386 10.2492C44.2089 10.1945 44.243 10.0276 44.2527 9.93873C44.2933 9.54704 44.3074 8.37648 44.2501 8.00734C44.2127 7.76769 43.8971 7.68909 43.9228 7.58086C43.9383 7.51515 44.6804 7.22589 44.7945 7.13184C44.9182 7.15696 44.8499 7.5931 44.8666 7.69811C44.9053 7.74514 45.5154 7.03778 45.9476 7.30127C46.262 7.49325 46.0662 7.98157 45.6957 7.93261C45.554 7.91393 45.4252 7.77671 45.3028 7.75287C45.0902 7.71164 44.913 7.91199 44.8776 8.10977C44.8035 8.52079 44.8808 9.16437 44.8686 9.61017C44.8634 9.80602 44.7107 10.1391 44.9723 10.2576C45.1759 10.3497 45.5585 10.2061 45.4799 10.5282H43.7817H43.7805Z" fill="white"/>
<path d="M47.4134 7.36683H48.4512C48.4957 7.49052 48.4957 7.57298 48.4512 7.69732H47.4134C47.3599 8.18822 47.3374 8.73645 47.3644 9.23251C47.3741 9.41482 47.4063 9.77881 47.4591 9.93987C47.5545 10.2304 47.8135 10.2871 48.0956 10.242C48.1646 10.2311 48.4834 10.0449 48.4525 10.2214C48.4126 10.452 48.162 10.4398 48.017 10.4939C47.7696 10.5854 47.7806 10.6569 47.4424 10.617C47.0069 10.5654 46.8323 10.3077 46.7988 9.89284C46.7434 9.21189 46.849 8.4633 46.7943 7.77462C46.7511 7.64256 46.4915 7.71213 46.3762 7.69732C46.3826 7.64449 46.3665 7.58329 46.3736 7.53497C46.3781 7.50534 46.8117 7.37005 46.9199 7.27342C47.1995 7.02346 47.4127 6.23621 47.4147 7.36683H47.4134Z" fill="white"/>
<path d="M39.6761 14.5619C39.6626 14.5148 39.479 14.4324 39.535 14.3029C39.6987 14.3067 39.861 14.1515 39.9841 14.1141C40.1071 14.0768 40.0343 14.328 40.0543 14.3963C40.2244 14.3757 40.3339 14.1798 40.5065 14.1605C40.7526 14.1328 40.8634 14.4021 40.6863 14.5348C40.5239 14.6559 40.149 14.2803 40.0652 14.6669C40.0388 14.788 40.0311 15.7376 40.0614 15.8297C40.1071 15.9688 40.3506 15.8787 40.3854 15.907C40.3912 15.9115 40.3925 16.0481 40.3854 16.0481H39.2297C39.182 16.0481 39.0209 16.1814 38.923 16.1428C38.9526 15.7066 38.6144 16.0681 38.3336 16.0951C37.2725 16.1975 37.7892 15.047 37.65 14.4768C37.6359 14.4188 37.4207 14.3879 37.4606 14.2552L38.0263 14.1605V15.5997C38.0263 15.6113 38.1235 15.7923 38.1319 15.8001C38.2788 15.9405 38.7581 15.8703 38.8515 15.717C38.9449 15.5636 38.9604 14.5883 38.8515 14.444C38.7987 14.3737 38.6112 14.4027 38.6396 14.2552L39.2529 14.2075V15.6938C39.2529 15.8683 39.546 15.8819 39.6774 15.8587C39.6156 15.5276 39.7605 14.8453 39.6774 14.5612L39.6761 14.5619Z" fill="white"/>
<path d="M41.7756 13.217C41.5031 13.2634 41.4426 13.6396 41.3041 13.6422C41.228 13.3942 41.4426 13.1468 41.4219 12.8872C41.5186 12.8556 41.5424 12.9729 41.6107 13.0044C41.717 13.0534 43.7218 13.0605 43.948 13.0308C44.0704 13.0147 44.1296 12.922 44.252 12.9342L44.2057 13.6177C43.9293 13.7227 44.0755 13.217 43.7573 13.217H43.0022C42.9971 13.217 42.9314 13.2827 42.9314 13.2879V15.647C42.9314 15.6677 43.0196 15.8435 43.0448 15.8642C43.1575 15.9563 43.4145 15.8326 43.4029 16.0484H42.0823C42.0752 16.0484 42.0765 15.9118 42.0823 15.9073C42.1035 15.8893 42.3148 15.9344 42.4134 15.8841C42.4463 15.8674 42.5545 15.7153 42.5545 15.6947V13.2177C42.3168 13.246 42.0024 13.179 41.7763 13.2177L41.7756 13.217Z" fill="white"/>
<path d="M30.6183 16.0478C30.6112 16.042 30.6228 15.9447 30.6183 15.9067C30.7426 15.9087 30.8277 15.9267 30.8547 15.7888C30.8818 15.651 30.8805 14.7574 30.8541 14.6099C30.8322 14.4862 30.675 14.4482 30.713 14.3032C30.8811 14.3245 31.0332 14.1538 31.1627 14.1151C31.2922 14.0765 31.2123 14.3284 31.2323 14.3967C31.2754 14.443 31.6007 14.1138 31.8088 14.1699C31.8694 14.186 31.9074 14.2736 32.0008 14.2511C32.111 14.224 32.272 13.8433 32.3642 13.9257C32.3758 13.9979 32.3848 14.1731 32.4421 14.2124C32.6109 14.3297 33.1031 14.0481 33.0251 14.4443H32.3648V15.506C32.3648 15.5189 32.4344 15.7263 32.4479 15.7528C32.6135 16.0768 32.9665 15.7553 33.0251 15.8127C32.9788 16.2063 32.0343 16.1747 32.0343 15.8359V14.5152C32.0343 14.3529 31.841 14.5848 31.776 14.5854C31.642 14.5874 31.3218 14.3026 31.2426 14.6666C31.2136 14.7999 31.2078 15.6645 31.2413 15.7792C31.3012 15.9827 31.6123 15.821 31.6091 16.0478C31.4687 16.0227 30.6615 16.082 30.6183 16.0478Z" fill="white"/>
<path d="M26.7864 13.086C26.8361 13.144 26.8702 13.6098 26.8438 13.6407C26.6447 13.6169 26.6666 13.3579 26.5127 13.2406C26.2685 13.0551 25.6913 13.0867 25.5914 13.4023C25.3305 14.2295 26.8026 14.2894 26.8908 15.1263C26.9778 15.9502 26.3458 16.1616 25.641 16.0933C25.0896 16.0398 25.0902 15.7828 25.0509 15.2919C25.2416 15.2435 25.248 15.4999 25.3414 15.6378C25.7602 16.2569 26.8232 15.9322 26.4895 15.1501C26.2949 14.6947 25.3112 14.5317 25.2384 13.9016C25.1514 13.1524 25.7486 12.9217 26.3948 12.9804C26.4676 12.9868 26.7523 13.0461 26.7852 13.0854L26.7864 13.086Z" fill="white"/>
<path d="M21.8434 13.0283C21.7712 13.2892 21.4794 13.0586 21.4214 13.4322C21.3634 13.8059 21.3769 15.0428 21.4182 15.4583C21.4259 15.5376 21.4832 15.7785 21.5438 15.8159C21.7119 15.9209 22.4573 15.9228 22.6254 15.8152C22.9218 15.6252 22.7788 15.3746 22.7904 15.1349C22.8045 14.8547 22.9804 14.4914 23.2143 14.3284C23.7161 13.9798 24.4705 14.1815 24.3906 14.8682H23.1879C23.0487 14.8682 23.1614 15.2651 23.1891 15.3385C23.338 15.7373 23.7812 15.966 24.1722 15.7573C24.2012 15.7418 24.4873 15.4802 24.3842 15.7334C24.3604 15.7927 24.1851 15.9576 24.1246 15.9931C23.7232 16.2275 23.2317 16.0781 22.9289 15.7644C22.9282 15.8191 22.858 16.0472 22.8103 16.0472H20.6167C20.6097 16.0472 20.611 15.9099 20.6167 15.9061C20.7127 15.8333 20.9865 16.0568 21.0361 15.6419C21.0954 15.1452 21.0896 14.0275 21.0439 13.5212C20.9981 13.0148 20.7024 13.237 20.6167 13.1694C20.611 13.1649 20.6103 13.0283 20.6167 13.0283H21.8434ZM23.2117 14.7265H23.9429C23.95 14.7265 24.0621 14.6756 24.0647 14.6492C24.0041 14.128 23.2194 14.2498 23.2117 14.7265Z" fill="white"/>
<path d="M31.3263 10.5279L31.3315 10.3443C31.6942 10.2805 31.8082 10.2831 31.8449 9.89073C31.8842 9.46489 31.8958 8.46763 31.8411 8.05532C31.8037 7.77187 31.4938 7.67394 31.5151 7.57989C31.5267 7.52835 32.3171 7.19786 32.4344 7.13086C32.4731 7.13086 32.4647 7.43107 32.4602 7.48712C32.4054 8.24537 32.3745 9.03455 32.4086 9.7986C32.4138 9.91327 32.4144 10.2463 32.5368 10.2843C32.7172 10.3404 32.9955 10.209 32.9298 10.5279H31.3257H31.3263Z" fill="white"/>
<path d="M32.0838 6.37151C32.3194 6.37151 32.5103 6.18057 32.5103 5.94503C32.5103 5.7095 32.3194 5.51855 32.0838 5.51855C31.8483 5.51855 31.6574 5.7095 31.6574 5.94503C31.6574 6.18057 31.8483 6.37151 32.0838 6.37151Z" fill="white"/>
<path d="M46.5171 14.1611V15.6003C46.5171 15.6248 46.644 15.7903 46.6801 15.8148C46.8489 15.9275 47.1922 15.9005 47.3211 15.7439C47.4499 15.5874 47.4622 14.6114 47.3629 14.4722C47.2934 14.3743 47.1117 14.4078 47.131 14.2564L47.7443 14.2087V15.6479C47.7443 15.693 47.8738 15.9308 47.9331 15.8599L47.8854 15.5069C48.0561 15.3967 48.0587 15.6421 48.1483 15.7633C48.346 16.0313 48.8079 16.0293 48.8292 15.6918C48.8563 15.2543 47.6522 15.0946 48.0735 14.4201C48.3145 14.0342 49.2976 14.0258 49.1127 14.681C48.9593 14.6926 48.9638 14.5064 48.8749 14.4239C48.6662 14.23 48.2919 14.2899 48.3119 14.6069C48.3319 14.9238 49.181 15.0237 49.1578 15.5971C49.1397 16.0441 48.5896 16.133 48.2442 16.0931C48.1437 16.0815 48.0523 16.0106 47.9582 16.0094C47.85 16.0074 47.4512 16.1814 47.4151 16.144V15.9082C47.1007 15.9784 46.9384 16.1356 46.5879 16.0976C45.9057 16.0242 46.224 14.9586 46.1415 14.5154C46.1144 14.3698 45.9392 14.4065 45.9527 14.2564L46.5184 14.1617L46.5171 14.1611Z" fill="white"/>
<path d="M46.0604 15.1394C46.0604 15.6812 45.621 16.1205 45.0792 16.1205C44.5374 16.1205 44.098 15.6812 44.098 15.1394C44.098 14.5976 44.5374 14.1582 45.0792 14.1582C45.621 14.1582 46.0604 14.5976 46.0604 15.1394ZM44.9961 14.3115C44.357 14.3953 44.3822 15.7791 44.9587 15.9318C45.9128 16.1849 45.8098 14.2046 44.9961 14.3115Z" fill="white"/>
<path d="M14.6016 17.1804C14.9746 17.2474 15.1382 17.6745 14.8631 17.9624C14.8251 18.0024 14.6434 18.0449 14.7195 18.1235C14.771 18.1763 15.0854 18.137 15.1414 18.4804C15.296 19.4248 14.1255 19.2155 13.5405 19.209C13.5579 19.1021 13.7132 19.1317 13.7551 19.0699C13.8027 18.999 13.7982 17.4413 13.7538 17.3685C13.6958 17.2725 13.5006 17.3298 13.5405 17.1804C13.8594 17.2203 14.3001 17.1262 14.6022 17.1804H14.6016ZM14.0591 17.3459C14.0095 17.505 14.0952 17.8871 14.0591 18.0771C14.3574 18.0971 14.7195 18.0468 14.7227 17.6764C14.7259 17.306 14.1152 17.1662 14.0591 17.3459ZM14.1364 18.177C14.0134 18.2176 14.043 18.8083 14.0804 18.9281C14.1841 19.2638 14.8496 19.1691 14.8631 18.7117C14.8741 18.3412 14.4495 18.0726 14.1364 18.1763V18.177Z" fill="white"/>
<path d="M8.11483 16.9912V18.0291C8.39185 17.9318 8.60316 17.879 8.86729 18.0548C9.29377 18.3389 9.15526 19.074 8.67338 19.2247C8.36801 19.3201 8.11483 19.1706 7.83202 19.2557V17.2979C7.83202 17.285 7.68578 17.1961 7.75922 17.1317L8.11483 16.9912ZM8.33387 18.0922C8.26429 18.0961 8.14382 18.1341 8.12128 18.2011C8.09551 18.2752 8.10195 18.7976 8.11805 18.8994C8.15993 19.1693 8.41826 19.228 8.63215 19.0888C9.00709 18.8453 8.83701 18.0632 8.33387 18.0922Z" fill="white"/>
<path d="M5.04246 17.233L5.04826 17.6982C4.89493 17.7111 4.92006 17.4946 4.8099 17.3941C4.57475 17.1789 4.10254 17.2118 3.83518 17.3587C3.26118 17.6743 3.29468 18.7115 3.84356 19.0208C4.12573 19.1799 4.48134 19.2289 4.76287 19.0407C4.90009 18.9486 4.93488 18.7624 5.09529 18.7367C5.17839 19.3358 4.45944 19.3017 4.0336 19.2559C3.34493 19.1812 2.89654 18.5073 3.13877 17.8412C3.40935 17.0965 4.38793 17.0095 5.04246 17.233Z" fill="white"/>
<path d="M10.8515 19.2082C10.8585 19.1025 11.028 19.1431 11.0434 19.0852C11.0621 19.0156 11.0563 18.3849 11.0434 18.2857C11.028 18.1704 10.9571 18.133 10.9462 18.0293C11.1207 18.0099 11.3701 17.7973 11.3237 18.0763C11.3475 18.1149 11.9222 17.7091 12.1457 18.1265C12.31 18.4319 12.1186 18.7779 12.2185 19.0819C12.2404 19.1483 12.3982 19.1006 12.4085 19.2082H11.7482C11.7096 19.0491 11.8912 19.156 11.9312 19.0375C11.9557 18.964 11.9499 18.4841 11.9344 18.3855C11.8758 18.0087 11.3791 18.0473 11.325 18.3366C11.3082 18.4261 11.3076 18.9653 11.3314 19.0362C11.3591 19.1193 11.4937 19.1193 11.5131 19.2088H10.8527L10.8515 19.2082Z" fill="white"/>
<path d="M18.4469 18.289C18.3973 18.0506 17.9734 18.0596 17.8761 18.2845C17.8181 18.4185 17.802 19.0124 17.8928 19.1026C17.9334 19.1426 18.1022 19.1129 18.0694 19.2553C17.8832 19.2051 17.7131 19.2167 17.5263 19.2083C17.4548 19.2051 17.391 19.2431 17.409 19.1374C17.4309 19.0827 17.5669 19.1574 17.5984 18.9957C17.6371 18.8011 17.6474 18.2162 17.4567 18.0989C17.4947 18.0326 17.8072 17.8902 17.8329 17.934C17.7853 18.2432 18.1203 17.934 18.3283 17.9334C18.9732 17.9327 18.624 18.7174 18.7349 19.0376C18.7729 19.1464 18.9668 19.0743 18.9178 19.1844C18.8579 19.3178 18.4011 19.1529 18.2575 19.2083C18.2613 19.1013 18.4462 19.1252 18.4462 19.1142C18.4462 18.8965 18.4842 18.4719 18.4462 18.2883L18.4469 18.289Z" fill="white"/>
<path d="M9.89486 17.945C10.8779 17.7427 11.0384 19.3849 9.88326 19.2567C9.1701 19.1781 9.16624 18.0951 9.89486 17.945ZM9.77954 18.1376C9.48706 18.376 9.65907 19.3018 10.1577 19.1523C10.494 19.0512 10.4379 18.1705 10.1583 18.0855C10.0566 18.0545 9.86329 18.0694 9.77954 18.1376Z" fill="white"/>
<path d="M6.27493 19.0433C6.28009 19.0594 6.33162 19.1064 6.35159 19.1116L6.55775 19.0671C6.47207 19.4324 6.10743 19.1637 5.96828 19.1637C5.87422 19.1637 5.77823 19.2649 5.59141 19.2578C5.29442 19.2462 5.18748 18.9118 5.45548 18.7431C5.57659 18.6664 5.95089 18.6219 5.98567 18.5182C6.03721 18.3649 6.01273 18.1104 5.8156 18.0827C5.5869 18.0505 5.62491 18.457 5.33178 18.4061C5.26221 18.1433 5.71574 17.9313 5.9219 17.9326C6.01982 17.9326 6.27493 18.0789 6.27493 18.1472C6.27493 18.3385 6.23563 18.9144 6.27493 19.0433ZM5.99147 18.6896C5.7151 18.6277 5.35755 19.062 5.73507 19.1154C6.01209 19.1547 6.01144 18.8964 5.99147 18.6896Z" fill="white"/>
<path d="M17.0786 19.0434C17.0837 19.0595 17.1353 19.1065 17.1552 19.1117L17.3614 19.0672C17.2757 19.4325 16.9111 19.1639 16.7719 19.1639C16.6398 19.1639 16.2965 19.4203 16.1599 19.1136C15.9409 18.6227 16.8048 18.7174 16.8441 18.4281C16.8711 18.2284 16.6675 17.9591 16.4839 18.1196C16.3905 18.2014 16.4034 18.4327 16.1348 18.4069C16.062 17.9727 17.0779 17.7723 17.0779 18.1479C17.0779 18.3392 17.0386 18.9152 17.0779 19.044L17.0786 19.0434ZM16.8421 18.6897C16.6779 18.6581 16.2862 18.8166 16.3918 19.0202C16.5393 19.3036 16.9452 18.9719 16.8421 18.6897Z" fill="white"/>
<path d="M15.9937 19.209H15.2863C15.3269 19.0827 15.5208 19.1439 15.5228 18.9977C15.4596 18.5235 15.6052 17.8393 15.5215 17.3935C15.5002 17.2795 15.3643 17.2305 15.381 17.1578L15.7586 16.9922V19.0447C15.7586 19.1033 15.9969 19.1181 15.9944 19.2096L15.9937 19.209Z" fill="white"/>
<path d="M20.1922 18.2174C19.9847 18.2509 19.9145 18.0551 19.7013 18.0763C19.1227 18.1343 19.2187 19.1902 19.9312 19.0665C20.0743 19.0414 20.0949 18.8732 20.2392 18.8778C20.2501 19.0891 20.0189 19.2263 19.8346 19.2508C18.8522 19.3809 18.8232 18.0963 19.671 17.9552C19.8874 17.9191 20.2482 17.9037 20.1922 18.2168V18.2174Z" fill="white"/>
<path d="M6.65234 19.208C6.66265 19.1268 6.7857 19.1191 6.81791 19.0669C6.9081 18.92 6.83273 18.2242 6.74898 18.031C6.89135 18.0046 7.09171 17.8287 7.12521 18.0059C7.15871 18.183 7.2708 17.9685 7.39449 17.9421C7.58325 17.9015 7.66442 18.0348 7.55168 18.1972C7.46214 18.2565 7.12456 18.0941 7.12456 18.2416V19.1146C7.12456 19.1281 7.35777 19.0869 7.36035 19.2086H6.65299L6.65234 19.208Z" fill="white"/>
<path d="M12.5021 18.6892V18.5011C12.7766 18.57 13.1264 18.362 13.3512 18.5249C13.3982 18.742 12.6097 18.6873 12.5021 18.6892Z" fill="white"/>
<path d="M7.64325 11.566C7.76823 11.4971 8.07617 11.2832 8.20952 11.1885C8.50265 12.1928 9.26283 13.0638 10.11 13.652C12.4614 15.2864 15.7811 15.4507 18.3986 14.3716C18.5468 14.3104 19.0377 14.0179 19.1324 14.0199C19.2033 14.0211 19.2941 14.101 19.2928 14.1777C19.258 14.3368 18.2079 15.0004 18.0069 15.1125C15.9763 16.2437 13.3846 16.571 11.1697 15.7998C9.31631 15.155 7.7663 13.6024 7.64325 11.566Z" fill="white"/>
<path d="M9.71897 5.7639C7.90805 4.70543 6.69562 2.31149 6.88824 0.219685C6.90177 0.0728018 6.91465 -0.0296302 7.077 0.00773496C7.0931 2.63489 9.21003 4.83943 11.7779 5.19118C14.3806 5.54744 16.7501 4.25705 17.8755 1.91207C17.9393 1.77936 17.8813 1.66597 18.0694 1.70592C18.1429 1.7916 17.8787 2.60268 17.8221 2.75601C16.7468 5.66533 13.4503 7.34354 10.474 6.14077C10.3168 6.07699 9.87037 5.85151 9.71897 5.76325V5.7639Z" fill="white"/>
<path d="M10.474 6.14054C10.8843 8.12347 9.79238 10.0652 8.20951 11.1887C8.07616 11.2834 7.76822 11.4973 7.64324 11.5662C5.46446 12.7716 2.48814 12.8779 0.219814 11.8419C0.154102 11.8123 -0.0127522 11.7724 0.000776531 11.6848C0.0793722 11.5108 0.718445 11.7588 0.886588 11.7885C2.50682 12.0726 4.13607 11.8523 5.63132 11.1823C7.77595 10.2211 9.60748 8.19692 9.71893 5.76367C9.86968 5.85193 10.3161 6.07741 10.474 6.14119V6.14054Z" fill="white"/>
<path d="M20.3539 7.86686C20.3539 9.41365 19.1003 10.6673 17.5535 10.6673C16.0067 10.6673 14.753 9.41365 14.753 7.86686C14.753 6.32007 16.0067 5.06641 17.5535 5.06641C19.1003 5.06641 20.3539 6.32007 20.3539 7.86686ZM17.0671 5.39818C14.7781 5.72609 15.1177 10.6725 17.8981 10.3813C20.3236 10.1268 20.1065 4.96269 17.0671 5.39818Z" fill="white"/>
<path d="M5.13276 6.4848C6.46438 6.31795 7.54861 7.90661 6.69888 8.99471C6.03597 9.84316 4.72819 9.57065 4.20765 8.70416C3.68712 7.83768 4.04853 6.62074 5.13276 6.4848Z" fill="white"/>
<path d="M13.1938 3.48295C11.8294 4.84742 9.96497 2.84452 11.1426 1.31384C12.4343 -0.365014 14.7297 1.94776 13.1938 3.48295Z" fill="white"/>
<path d="M12.1884 12.7762C10.7485 11.2906 13.2668 8.88059 14.476 10.6535C15.4707 12.112 13.424 14.0512 12.1884 12.7762Z" fill="white"/>
</svg>
