<svg width="48" height="35" viewBox="0 0 48 35" fill="none" xmlns="http://www.w3.org/2000/svg">
<path d="M31.0161 0.419409C30.1942 0.940096 17.308 9.79179 14.0515 12.0889C12.7799 12.9772 10.9191 14.2636 9.94217 14.9221C8.96523 15.5806 8.0038 16.2391 7.80221 16.3923L7.46106 16.6526L8.11235 17.0355C10.1438 18.2147 11.9116 20.5272 12.7644 23.1306C13.0436 24.0035 13.1676 24.1873 13.4467 24.1873C13.6328 24.1873 16.6722 23.7432 20.1923 23.1919C33.6523 21.0938 35.5907 20.7875 40.7235 19.9758C43.6233 19.5164 46.1664 19.0417 46.3525 18.9498C47.3139 18.4597 48.0738 16.8364 47.6085 16.2698C47.4845 16.1319 46.8022 15.7491 46.0734 15.4122C45.3445 15.0752 44.7398 14.7843 44.7087 14.769C44.6932 14.7536 44.7863 14.478 44.9103 14.1717C45.0499 13.8501 45.1429 13.3447 45.1119 13.0384C45.0654 12.5024 45.0034 12.4412 43.7938 11.8592L42.5223 11.2467L42.6153 10.3737C42.7704 8.85762 42.7549 8.8423 40.0256 7.35681C39.9016 7.28024 39.8241 7.09647 39.8551 6.94332C40.1342 5.58035 39.8241 5.07497 38.1338 4.20205C37.2034 3.71199 37.0638 3.58948 37.1414 3.29851C37.1879 3.11473 37.1569 2.71656 37.0793 2.41027C36.8777 1.72113 35.7302 0.909468 34.2105 0.373465C32.7374 -0.131908 31.9 -0.131908 31.0161 0.419409ZM35.4356 1.3689C36.335 1.7977 36.6296 2.13461 36.7227 2.91565C36.8157 3.54354 36.8002 3.55885 36.4435 3.45165C36.242 3.39039 35.7147 3.31382 35.265 3.25256C34.5207 3.17599 34.3811 3.22194 32.7064 4.09485C31.7449 4.60023 28.8296 6.22355 26.2245 7.70904L21.5104 10.4044L20.4869 10.3891C19.3549 10.3737 18.7501 10.2512 18.6726 10.0062C18.6106 9.80711 31.4348 1.29233 32.1326 1.07792C32.908 0.848209 34.6602 1.00135 35.4356 1.3689ZM37.56 4.33988C39.2813 5.02903 39.9171 5.7488 39.5449 6.60641C39.4519 6.83612 39.3588 7.03521 39.3278 7.03521C39.3123 7.03521 38.8936 6.89738 38.3974 6.72892C37.2499 6.34606 36.6917 6.34606 35.5907 6.74424C35.0944 6.92801 32.1791 8.32162 29.1088 9.83774L23.5107 12.579L22.4718 12.5024C21.898 12.4565 21.2467 12.3187 21.0141 12.1961L20.5954 11.9817L21.5104 11.4764C22.0221 11.2007 22.9835 10.6494 23.6658 10.2359C25.9608 8.88825 31.869 5.61097 33.4662 4.784C35.3426 3.83451 36.1179 3.74262 37.56 4.33988ZM40.2272 7.95407C42.026 8.70447 42.7859 9.76116 42.1346 10.6341C41.933 10.9097 41.902 10.9097 41.0336 10.5881C40.5529 10.4044 39.8861 10.2512 39.5604 10.2512C39.0177 10.2512 32.3187 12.6709 28.3179 14.3095C26.5811 15.014 25.108 15.1671 23.5883 14.7843C23.03 14.6464 22.4873 14.432 22.3632 14.3095C22.1616 14.1258 22.2702 14.0339 23.1386 13.6357C24.131 13.1916 25.3871 12.6096 32.8149 9.17922L36.8467 7.32618L37.9322 7.38744C38.7076 7.43338 39.3744 7.60184 40.2272 7.95407ZM18.7501 11.2007C19.2774 11.2926 19.7115 11.4151 19.7115 11.4611C19.7115 11.5683 12.0511 15.7644 11.8495 15.7644C11.772 15.7644 11.5859 15.6112 11.4308 15.4428C11.2448 15.2131 11.1982 15.0752 11.3223 14.9527C11.4153 14.8608 12.7644 13.9114 14.3151 12.824C16.362 11.4151 17.2459 10.8944 17.463 10.9557C17.6336 10.9863 18.2074 11.1088 18.7501 11.2007ZM42.3517 11.6448C44.3676 12.4105 45.0809 13.3141 44.3831 14.2176L44.104 14.5699L43.034 14.3095C40.7545 13.7276 41.1732 13.651 32.3497 16.377C29.1243 17.3724 28.7056 17.4796 27.9302 17.3877C27.0773 17.2805 25.7282 16.7445 25.6507 16.4535C25.6197 16.3617 27.8527 15.4734 30.6129 14.478C33.3577 13.4672 36.4746 12.3187 37.5445 11.9205C39.9481 11.0169 40.6149 10.971 42.3517 11.6448ZM20.704 13.2069C21.2157 13.3141 21.6499 13.4826 21.6809 13.5591C21.7119 13.6357 20.6265 14.233 19.2929 14.8762C16.5171 16.2085 13.1986 17.7553 13.1056 17.7553C12.9815 17.7553 12.2527 16.4995 12.2992 16.3463C12.3302 16.2698 13.8189 15.4428 15.6022 14.5392C19.1068 12.7475 18.8742 12.8087 20.704 13.2069ZM21.9601 15.1365C22.3942 15.2896 23.0455 15.4734 23.4022 15.5347C23.8209 15.5959 24.0225 15.7031 23.9449 15.7797C23.6968 16.0247 14.0825 19.7614 13.8964 19.6849C13.6949 19.6236 13.2607 18.2606 13.3847 18.1381C13.4778 18.0462 20.9986 14.8455 21.1072 14.8455C21.1537 14.8455 21.5414 14.968 21.9601 15.1365ZM43.9799 15.1365C45.8563 15.6419 46.8487 16.0707 47.0348 16.4689C47.2364 16.913 46.9573 17.6787 46.461 18.0003C46.1199 18.23 33.5282 20.3587 32.5358 20.3587C31.4503 20.3587 28.5815 19.3173 28.442 18.8732C28.4109 18.7813 28.535 18.6588 28.7366 18.5975C28.9382 18.5516 30.2097 18.1534 31.5744 17.7399C42.0881 14.5699 41.933 14.6005 43.9799 15.1365ZM25.3251 17.2958C26.0074 17.6327 26.7052 17.9084 26.8603 17.9084C27.5891 17.9084 27.2014 18.2453 26.0384 18.5822C19.4014 20.5731 14.3617 22.028 14.3151 21.9667C14.1756 21.8289 13.9895 20.2821 14.098 20.1749C14.1601 20.1137 15.2611 19.7155 16.5326 19.2867C17.8197 18.8732 20.0062 18.1075 21.4173 17.6174C22.8284 17.1121 24.007 16.6986 24.038 16.6986C24.069 16.6833 24.6428 16.9589 25.3251 17.2958ZM28.1783 19.593C28.6591 19.838 29.4189 20.1596 29.8841 20.3128C30.3493 20.4506 30.7215 20.6037 30.7215 20.665C30.7215 20.7109 28.3024 21.155 25.3406 21.6298C22.3632 22.1198 18.7191 22.7171 17.2304 22.9621C15.7418 23.2225 14.4702 23.4216 14.4082 23.4216C14.3306 23.4216 14.2841 23.1765 14.2841 22.8856C14.2841 22.5946 14.2996 22.3496 14.3306 22.3496C14.4392 22.3496 24.0845 19.884 25.294 19.5317C27.0308 19.057 27.1704 19.057 28.1783 19.593Z" fill="#FF1C1C"/>
<path d="M6.00344 19.1637C6.143 20.8023 6.15851 20.8176 6.8098 20.8176C7.61616 20.8176 8.90324 21.4762 9.55453 22.2266C9.84916 22.5788 10.2523 23.2526 10.4384 23.7427C10.8106 24.6922 10.7796 24.6769 11.8496 24.3859C12.2062 24.294 12.1287 24.049 11.2603 22.2725C10.8881 21.5068 10.2368 20.5114 9.81815 20.0366C8.87223 19.0105 7.4611 18.2142 6.54619 18.2142H5.9104L6.00344 19.1637ZM7.4611 20.4348C7.4611 20.5573 7.35255 20.6645 7.22849 20.6645C7.10444 20.6645 6.99589 20.5573 6.99589 20.4348C6.99589 20.3123 7.10444 20.2051 7.22849 20.2051C7.35255 20.2051 7.4611 20.3123 7.4611 20.4348Z" fill="#FF1C1C"/>
<path d="M4.11155 19.0414C2.6539 20.0062 1.0877 22.0583 0.482925 23.7736C0.126265 24.769 -0.168367 28.3066 0.110758 28.1381C0.188293 28.0922 0.265828 28.3372 0.265828 28.6895C0.312349 29.8993 1.5529 32.3955 2.18869 32.564C2.35927 32.6099 2.49883 32.7478 2.49883 32.855C2.49883 33.1153 3.69286 33.9882 4.04952 33.9882C4.18909 33.9882 4.4527 34.1107 4.63879 34.2639C4.93342 34.5089 6.65469 35.0143 6.74773 34.8765C6.76324 34.8611 6.74773 34.4017 6.71672 33.8657C6.65469 32.9775 6.62368 32.9009 6.25151 32.8243C4.35966 32.3649 2.59187 30.4966 2.17318 28.5057C2.06463 27.9697 1.95608 27.74 1.83203 27.8165C1.69247 27.8931 1.69247 27.8625 1.81652 27.694C1.9871 27.4796 2.23521 25.5347 2.2197 24.524C2.2197 24.2024 2.28173 24.0339 2.4368 24.0339C2.56086 24.0339 2.6539 23.9573 2.6539 23.8808C2.6539 23.7889 2.90201 23.3294 3.19664 22.87C3.49127 22.4106 3.73938 21.9358 3.73938 21.798C3.73938 21.6602 3.83243 21.5836 3.94097 21.6295C4.25111 21.7367 4.6698 21.4458 4.6698 21.1242C4.6698 20.9557 4.76284 20.8179 4.87139 20.8179C5.38312 20.8026 5.47616 20.5729 5.36761 19.5315C5.30558 18.9342 5.18153 18.5207 5.07298 18.5207C4.97994 18.5207 4.54574 18.7504 4.11155 19.0414ZM2.03362 23.942C2.03362 23.988 1.97159 24.0645 1.87855 24.1105C1.80102 24.1564 1.72348 24.1258 1.72348 24.0492C1.72348 23.9573 1.80102 23.8808 1.87855 23.8808C1.97159 23.8808 2.03362 23.9114 2.03362 23.942ZM1.41334 26.4995C1.41334 26.5914 1.35131 26.6067 1.25827 26.5608C1.18074 26.5148 1.1032 26.3923 1.1032 26.3157C1.1032 26.2239 1.18074 26.2085 1.25827 26.2545C1.35131 26.3004 1.41334 26.4229 1.41334 26.4995Z" fill="#FF1C1C"/>
<path d="M42.0415 20.7256C42.0415 21.522 42.2431 21.8589 42.8169 22.0273C43.4836 22.2264 44.5226 23.1912 44.5226 23.62C44.5226 23.7885 44.6312 23.8957 44.8017 23.8651C45.3755 23.8191 45.7787 23.8804 45.6856 24.0335C45.6391 24.1101 45.3755 24.1867 45.1274 24.1867C44.6932 24.1867 44.6622 24.2173 44.7087 24.6767C44.7397 24.9524 44.8638 25.274 44.9878 25.3812C45.1894 25.5343 45.1894 25.5496 44.9568 25.4731C44.7397 25.3965 44.6777 25.4577 44.6777 25.764C44.6777 25.9784 44.4141 26.4226 44.0419 26.8514C43.5612 27.3874 43.3751 27.7243 43.3441 28.1837C43.2821 28.9341 43.4992 28.9647 44.6312 28.3215C45.2359 27.9846 45.5771 27.6477 45.9182 27.0504C46.4145 26.1928 46.6471 25.1208 46.4455 24.692C46.3834 24.5389 46.3214 24.2785 46.3059 24.1101C46.2904 23.9416 46.2749 23.6507 46.2594 23.4516C46.2439 23.2678 46.1198 23.1147 45.9958 23.1147C45.8562 23.1147 45.8097 23.0228 45.8562 22.8849C46.1198 22.2417 45.1274 21.1697 43.8868 20.7409C43.0495 20.45 42.0415 20.4346 42.0415 20.7256ZM45.391 23.0993C45.329 23.1759 45.391 23.2831 45.484 23.3137C45.7942 23.4363 45.329 23.7119 44.9723 23.62C44.7087 23.5435 44.7087 23.5281 45.0343 23.2525C45.422 22.9309 45.5151 22.9003 45.391 23.0993Z" fill="#FF1C1C"/>
<path d="M40.3979 21.0324C39.0333 21.6602 38.3355 22.8854 38.3199 24.6772C38.3199 25.5041 38.382 25.7339 38.5991 25.8564C38.8317 25.9942 38.8317 26.0401 38.6301 26.1933C38.444 26.3158 38.506 26.3311 38.9092 26.2699C39.1883 26.2239 39.4054 26.2545 39.4054 26.3311C39.4054 26.423 39.3124 26.4843 39.1883 26.4843C38.7696 26.4843 38.7541 26.8059 39.1573 27.4031C39.9327 28.5517 42.0261 29.3327 42.2742 28.567C42.4758 27.9391 42.5068 27.7094 42.3518 27.7094C42.2587 27.7094 42.1967 27.7707 42.1967 27.8626C42.1967 27.9391 42.1191 28.0157 42.0261 28.0157C41.9331 28.0157 41.9021 27.8932 41.9641 27.7247C42.0261 27.5103 41.9486 27.4184 41.6694 27.3419C41.2353 27.2347 40.615 26.4843 40.3824 25.7951C40.2893 25.5195 40.1343 25.351 40.0102 25.3969C39.8861 25.4276 39.607 25.5041 39.3899 25.5654C39.0333 25.6726 38.9867 25.642 39.0488 25.3969C39.1108 25.1825 39.2659 25.106 39.6535 25.106C40.1808 25.106 40.1808 25.0907 40.1808 24.4321C40.1808 23.3295 40.5685 22.6557 41.4834 22.1197C41.7005 21.9972 41.7315 21.844 41.6384 21.308C41.5919 20.9558 41.4523 20.6648 41.3593 20.6648C41.2663 20.6648 40.8321 20.8333 40.3979 21.0324ZM40.1808 26.4996C40.1808 26.5761 40.1188 26.6068 40.0257 26.5608C39.9482 26.5149 39.8706 26.5455 39.8706 26.6221C39.8706 26.714 39.7621 26.7905 39.6225 26.7905C39.4054 26.7905 39.4054 26.7446 39.5605 26.5608C39.7776 26.3005 40.1808 26.2545 40.1808 26.4996ZM41.3438 27.8626C41.3903 27.9391 41.3593 28.0157 41.2818 28.0157C41.1887 28.0157 41.1112 27.9391 41.1112 27.8626C41.1112 27.7707 41.1422 27.7094 41.1732 27.7094C41.2197 27.7094 41.2973 27.7707 41.3438 27.8626Z" fill="#FF1C1C"/>
<path d="M33.4197 21.9348L32.4583 22.0727L32.5358 22.7159C32.5823 23.0528 32.6753 23.405 32.7374 23.4663C32.7994 23.5429 33.2801 23.5122 33.7918 23.4203C34.5982 23.2825 34.7998 23.2978 35.1254 23.4969C35.4046 23.6807 35.5131 23.696 35.5596 23.5429C35.6062 23.405 35.6527 23.405 35.7457 23.5429C35.8078 23.6501 35.7767 23.7266 35.6992 23.7266C35.6062 23.7266 35.5286 23.8951 35.5286 24.0942C35.5286 24.3086 35.3581 24.5995 35.141 24.768C34.9394 24.9365 34.8153 25.1202 34.8773 25.1815C34.9394 25.2581 34.9083 25.2581 34.8153 25.2121C34.5207 25.0437 33.1871 25.2887 33.094 25.5184C33.0475 25.6256 33.063 25.9625 33.1251 26.2688C33.2026 26.7436 33.2646 26.8048 33.5592 26.7282C33.7453 26.6976 34.2571 26.6057 34.6913 26.5445C35.3891 26.4679 35.5441 26.4985 35.8233 26.7742C36.0093 26.958 36.1489 27.2949 36.1489 27.5399C36.1489 27.8002 36.2264 28.0453 36.304 28.0912C36.5056 28.2137 36.5056 28.7804 36.304 28.7804C36.2109 28.7804 36.1024 28.6732 36.0559 28.5507C35.9783 28.3669 35.9008 28.3669 35.6372 28.5047C35.4511 28.6119 35.265 28.7038 35.2185 28.7038C35.172 28.7191 34.7688 28.7804 34.3346 28.8416L33.5127 28.9641L33.6058 29.592C33.6678 29.9443 33.7453 30.2812 33.8074 30.3271C33.8539 30.3884 34.4431 30.3271 35.1099 30.1893C35.9473 30.0055 36.2885 29.883 36.2419 29.7452C36.1489 29.5155 36.397 29.4695 36.5366 29.6992C36.5986 29.8064 36.8002 29.7605 37.0793 29.592C37.56 29.3164 37.8237 28.9029 37.5755 28.811C37.3429 28.7344 37.5445 28.1678 37.7926 28.1678C38.1028 28.1678 38.2268 27.494 38.0097 26.8661C37.8081 26.2841 37.6686 26.2688 37.5911 26.8201C37.56 27.0039 37.467 27.203 37.374 27.2489C37.2964 27.3102 37.2654 27.4633 37.3274 27.6012C37.374 27.739 37.3584 27.8615 37.2654 27.8615C37.1724 27.8615 37.1413 28.0146 37.2034 28.1984C37.2809 28.5047 37.2499 28.52 37.0483 28.3669C36.8002 28.1525 36.6916 27.2489 36.9243 27.2489C37.1258 27.2489 37.3895 26.3454 37.2189 26.2535C37.1413 26.1922 37.0173 26.2076 36.9243 26.2535C36.6916 26.3913 36.459 26.1922 36.5676 25.9319C36.6296 25.7634 36.6916 25.7481 36.7692 25.8706C36.8312 25.9778 37.0173 26.0238 37.1724 25.9932C37.3895 25.9472 37.2964 25.8553 36.8157 25.6409C36.4435 25.4878 36.1489 25.304 36.1489 25.2274C36.1489 25.1662 36.2575 25.1509 36.3815 25.1968C36.5056 25.2581 36.6141 25.2121 36.6141 25.1202C36.6141 24.7986 36.6451 24.7221 36.8002 24.523C36.9243 24.3851 36.9243 24.2779 36.8002 24.1554C36.5056 23.8645 36.5831 23.696 36.9398 23.8032C37.2654 23.9104 37.2809 23.8798 37.1879 23.3438C37.0638 22.624 36.5676 22.088 35.8543 21.8889C35.203 21.7204 34.7223 21.7204 33.4197 21.9348ZM35.5286 23.0222C35.5286 23.0681 35.4666 23.1447 35.3736 23.1906C35.296 23.2366 35.2185 23.2059 35.2185 23.1294C35.2185 23.0375 35.296 22.9609 35.3736 22.9609C35.4666 22.9609 35.5286 22.9915 35.5286 23.0222ZM36.366 23.5888C36.3195 23.6654 36.2109 23.696 36.1334 23.6347C36.0559 23.5888 36.0248 23.4816 36.0869 23.405C36.1334 23.3285 36.2419 23.2978 36.3195 23.3591C36.397 23.405 36.428 23.5122 36.366 23.5888ZM36.1489 24.7986C36.1489 24.8752 36.0869 24.9518 35.9938 24.9518C35.9163 24.9518 35.8388 24.8752 35.8388 24.7986C35.8388 24.7067 35.9163 24.6455 35.9938 24.6455C36.0869 24.6455 36.1489 24.7067 36.1489 24.7986ZM34.5207 29.2398C34.5672 29.3164 34.5362 29.3929 34.4586 29.3929C34.3656 29.3929 34.2881 29.3164 34.2881 29.2398C34.2881 29.1479 34.3191 29.0867 34.3501 29.0867C34.3966 29.0867 34.4742 29.1479 34.5207 29.2398Z" fill="#FF1C1C"/>
<path d="M30.9851 22.334C30.6749 22.4106 30.3648 22.5025 30.3183 22.5484C30.2097 22.6556 30.8455 27.1274 31.0471 27.6481C31.1091 27.8166 31.2797 28.0769 31.4193 28.2148C31.6519 28.4445 31.6519 28.4751 31.4348 28.4751C31.1867 28.4751 31.0781 29.2255 31.2952 29.4552C31.3572 29.5165 31.4193 29.7921 31.4193 30.0831C31.4348 30.3894 31.4813 30.6651 31.5278 30.6957C31.5743 30.7416 31.931 30.7263 32.3187 30.6804C32.9855 30.5885 33.0475 30.5425 33.1405 30.0831C33.1871 29.7921 33.1716 29.4093 33.1095 29.2102C33.0475 29.0264 32.9855 28.7201 32.97 28.5517C32.9545 28.3832 32.939 28.0616 32.9234 27.8166C32.9079 27.5256 32.7839 27.3571 32.5358 27.2653C32.2256 27.1427 31.993 26.6374 32.2567 26.668C32.7529 26.7139 32.7529 26.6374 32.3342 24.2636C32.2101 23.5898 32.1016 22.87 32.0706 22.6556C32.0396 22.2268 31.838 22.1809 30.9851 22.334ZM31.6519 23.1151C31.6519 23.1916 31.6209 23.2682 31.5899 23.2682C31.5433 23.2682 31.4658 23.1916 31.4193 23.1151C31.3728 23.0232 31.4038 22.9619 31.4813 22.9619C31.5743 22.9619 31.6519 23.0232 31.6519 23.1151ZM32.0085 27.5103C31.9 27.5562 31.8069 27.6788 31.8069 27.8013C31.8069 27.9238 31.6984 28.0157 31.5588 28.0157C31.3572 28.0157 31.3417 27.9697 31.4813 27.8166C31.5743 27.6941 31.6209 27.5716 31.5743 27.5409C31.5433 27.495 31.6674 27.4643 31.8535 27.449C32.0396 27.449 32.1016 27.4643 32.0085 27.5103Z" fill="#FF1C1C"/>
<path d="M26.2245 23.3751C26.2245 23.5436 26.271 23.8958 26.3175 24.1562C26.3951 24.539 26.5036 24.6309 26.9843 24.7075C27.3565 24.7534 27.7442 24.9831 28.0853 25.3354C28.38 25.6263 28.6746 25.8714 28.7676 25.8714C29.0157 25.8714 29.9462 25.1057 29.9462 24.8912C29.9462 24.6003 29.2018 23.8958 28.5195 23.5589C28.2094 23.4058 27.5581 23.222 27.0929 23.176C26.2865 23.0842 26.2245 23.0995 26.2245 23.3751Z" fill="#FF1C1C"/>
<path d="M24.7512 23.5585C23.9138 23.9413 23.0299 24.8755 22.7353 25.7025C22.4717 26.4529 22.4252 28.2446 22.6578 28.3978C22.7508 28.4437 22.8128 28.6275 22.8128 28.7806C22.8128 29.041 22.8749 29.0563 23.2005 28.9338C23.5727 28.796 23.5882 28.8113 23.4952 29.2094C23.4331 29.4392 23.3246 29.6689 23.2315 29.7148C23.0144 29.868 23.9914 30.8175 24.224 30.6796C24.348 30.6184 24.3635 30.6337 24.3015 30.7409C24.162 30.9859 25.1389 31.5679 25.5111 31.476C25.6816 31.43 25.9142 31.476 26.0228 31.5525C26.3329 31.8282 26.612 31.6444 26.3329 31.3535C26.1003 31.1237 26.1158 31.1084 26.457 31.0165C26.7051 30.9553 26.7981 30.8481 26.7361 30.6949C26.6896 30.5418 26.55 30.4959 26.3794 30.5418C26.1934 30.6031 26.1158 30.5571 26.1313 30.404C26.1313 30.2815 25.8987 30.0211 25.6041 29.822C25.3095 29.6229 24.9528 29.2401 24.8132 28.9797C24.6737 28.7041 24.5341 28.5203 24.4876 28.5509C24.4566 28.5969 24.4256 28.4744 24.4256 28.2753C24.4411 28.0456 24.3635 27.9537 24.2085 27.9996C23.7122 28.1221 23.3866 28.0762 23.3091 27.8924C23.2625 27.7393 23.3866 27.6933 23.7588 27.7393L24.286 27.7852L24.3635 26.9429C24.4721 25.9322 24.6427 25.5799 25.3715 24.9827C25.8832 24.5692 25.9142 24.4926 25.8212 23.9107C25.7126 23.1909 25.6196 23.1603 24.7512 23.5585ZM24.4411 29.1022C24.4876 29.1635 24.379 29.2094 24.2085 29.1941C24.0534 29.1788 23.8673 29.0869 23.8363 28.995C23.7588 28.796 24.317 28.8878 24.4411 29.1022Z" fill="#FF1C1C"/>
<path d="M17.1218 24.6765L16.331 24.8144L15.9123 26.9737C15.6952 28.1682 15.4781 29.4546 15.4471 29.8375C15.416 30.2203 15.292 30.9248 15.1834 31.3842C15.0749 31.8437 14.9974 32.5328 15.0284 32.9004L15.0749 33.5589L15.8037 33.4517C16.2069 33.3904 16.5791 33.2985 16.6411 33.2373C16.7807 33.1148 16.8117 32.8544 17.2924 29.3474C17.4785 27.9385 17.6801 26.7746 17.7576 26.7746C17.9592 26.7746 19.1222 29.3627 19.0137 29.5465C18.9671 29.6231 18.7345 29.6997 18.5019 29.6997C17.8661 29.6997 17.6646 29.9141 17.587 30.6645L17.5095 31.3536L18.0988 31.2311C19.9596 30.8482 19.82 30.8176 20.2852 31.7671L20.7039 32.6247L21.4172 32.5175C22.9834 32.2878 23.0455 32.686 20.6729 28.3673C18.9671 25.2585 18.4864 24.5081 18.2383 24.5234C18.0677 24.5234 17.5715 24.6 17.1218 24.6765ZM16.3775 33.0535C16.2844 33.1301 15.9898 32.9004 15.9898 32.7472C15.9898 32.6706 16.0828 32.686 16.2069 32.7932C16.331 32.9004 16.393 33.0229 16.3775 33.0535Z" fill="#FF1C1C"/>
<path d="M28.7987 28.6741C28.7522 28.8885 28.473 29.2561 28.1939 29.5011C27.7907 29.8533 27.6667 30.0677 27.6822 30.4353C27.6977 30.7109 27.6512 30.9253 27.5891 30.9253C27.5116 30.9253 27.4651 31.0325 27.4651 31.1551C27.4651 31.5226 28.1164 31.4307 28.8917 30.9407C29.6206 30.4812 30.1323 29.884 30.4114 29.1795C30.551 28.812 30.52 28.7507 30.1323 28.6129C29.1864 28.2606 28.9072 28.2606 28.7987 28.6741Z" fill="#FF1C1C"/>
<path d="M13.3226 31.5227C13.2141 31.7065 13.0435 31.8443 12.9349 31.8443C12.8264 31.8443 12.7333 31.9056 12.7333 31.9668C12.7333 32.0281 12.4232 32.1812 12.0355 32.2885C11.6479 32.3957 11.3842 32.5488 11.4308 32.6254C11.4773 32.7019 11.3998 32.7173 11.2757 32.6713C10.9811 32.5641 10.4073 32.8704 10.4073 33.1461C10.4073 33.2686 10.3453 33.3758 10.2522 33.3758C10.1747 33.3758 10.0972 33.2839 10.0972 33.1767C10.0972 33.0389 9.70949 32.9929 8.68603 32.9929H7.2749L7.36794 33.6667C7.41446 34.0343 7.46099 34.4631 7.46099 34.6162C7.46099 35.0297 8.56198 34.9991 10.7485 34.5397C13.3226 34.0037 13.5087 33.8965 13.3691 33.0389C13.3691 32.9776 13.4312 32.5641 13.5242 32.1506C13.7103 31.2777 13.6328 31.0327 13.3226 31.5227Z" fill="#FF1C1C"/>
</svg>
