<svg width="48" height="35" viewBox="0 0 48 35" fill="none" xmlns="http://www.w3.org/2000/svg">
<path d="M31.016 0.419134C30.1941 0.939821 17.3078 9.79152 14.0514 12.0887C12.7798 12.9769 10.919 14.2633 9.94205 14.9218C8.96511 15.5803 8.00368 16.2389 7.80209 16.392L7.46094 16.6523L8.11223 17.0352C10.1436 18.2144 11.9114 20.5269 12.7643 23.1303C13.0434 24.0032 13.1675 24.187 13.4466 24.187C13.6327 24.187 16.6721 23.7429 20.1921 23.1916C33.6522 21.0935 35.5905 20.7872 40.7233 19.9756C43.6231 19.5161 46.1663 19.0414 46.3524 18.9495C47.3138 18.4594 48.0736 16.8361 47.6084 16.2695C47.4844 16.1317 46.8021 15.7488 46.0732 15.4119C45.3444 15.075 44.7396 14.784 44.7086 14.7687C44.6931 14.7534 44.7862 14.4777 44.9102 14.1714C45.0498 13.8498 45.1428 13.3444 45.1118 13.0382C45.0653 12.5022 45.0033 12.4409 43.7937 11.859L42.5221 11.2464L42.6152 10.3735C42.7703 8.85734 42.7547 8.84203 40.0255 7.35654C39.9015 7.27996 39.8239 7.09619 39.8549 6.94305C40.1341 5.58007 39.8239 5.0747 38.1337 4.20178C37.2033 3.71172 37.0637 3.5892 37.1412 3.29823C37.1878 3.11446 37.1567 2.71629 37.0792 2.41C36.8776 1.72085 35.7301 0.909193 34.2104 0.37319C32.7373 -0.132183 31.8999 -0.132183 31.016 0.419134ZM35.4355 1.36862C36.3349 1.79743 36.6295 2.13434 36.7225 2.91537C36.8156 3.54326 36.8001 3.55858 36.4434 3.45138C36.2418 3.39012 35.7146 3.31355 35.2649 3.25229C34.5206 3.17572 34.381 3.22166 32.7062 4.09458C31.7448 4.59995 28.8295 6.22327 26.2243 7.70877L21.5102 10.4041L20.4868 10.3888C19.3548 10.3735 18.75 10.2509 18.6725 10.0059C18.6104 9.80683 31.4347 1.29205 32.1325 1.07765C32.9078 0.847935 34.6601 1.00108 35.4355 1.36862ZM37.5599 4.33961C39.2812 5.02875 39.917 5.74853 39.5448 6.60613C39.4518 6.83585 39.3587 7.03493 39.3277 7.03493C39.3122 7.03493 38.8935 6.89711 38.3973 6.72865C37.2498 6.34579 36.6915 6.34579 35.5905 6.74396C35.0943 6.92773 32.179 8.32134 29.1086 9.83746L23.5106 12.5787L22.4717 12.5022C21.8979 12.4562 21.2466 12.3184 21.014 12.1959L20.5953 11.9815L21.5102 11.4761C22.022 11.2004 22.9834 10.6491 23.6657 10.2356C25.9607 8.88797 31.8689 5.6107 33.4661 4.78372C35.3424 3.83423 36.1178 3.74235 37.5599 4.33961ZM40.2271 7.9538C42.0259 8.7042 42.7858 9.76089 42.1345 10.6338C41.9329 10.9095 41.9019 10.9095 41.0335 10.5879C40.5528 10.4041 39.886 10.2509 39.5603 10.2509C39.0176 10.2509 32.3186 12.6706 28.3178 14.3093C26.581 15.0137 25.1078 15.1669 23.5882 14.784C23.0299 14.6462 22.4872 14.4318 22.3631 14.3093C22.1615 14.1255 22.2701 14.0336 23.1385 13.6354C24.1309 13.1913 25.387 12.6094 32.8148 9.17894L36.8466 7.32591L37.9321 7.38717C38.7074 7.43311 39.3742 7.60157 40.2271 7.9538ZM18.75 11.2004C19.2772 11.2923 19.7114 11.4148 19.7114 11.4608C19.7114 11.568 12.051 15.7641 11.8494 15.7641C11.7719 15.7641 11.5858 15.611 11.4307 15.4425C11.2446 15.2128 11.1981 15.075 11.3222 14.9525C11.4152 14.8606 12.7643 13.9111 14.315 12.8238C16.3619 11.4148 17.2458 10.8942 17.4629 10.9554C17.6335 10.986 18.2073 11.1086 18.75 11.2004ZM42.3516 11.6446C44.3675 12.4103 45.0808 13.3138 44.383 14.2174L44.1039 14.5696L43.0339 14.3093C40.7544 13.7273 41.173 13.6507 32.3496 16.3767C29.1241 17.3721 28.7055 17.4793 27.9301 17.3874C27.0772 17.2802 25.7281 16.7442 25.6506 16.4533C25.6196 16.3614 27.8526 15.4731 30.6128 14.4777C33.3575 13.467 36.4744 12.3184 37.5444 11.9202C39.948 11.0167 40.6148 10.9707 42.3516 11.6446ZM20.7039 13.2066C21.2156 13.3138 21.6498 13.4823 21.6808 13.5588C21.7118 13.6354 20.6263 14.2327 19.2927 14.8759C16.517 16.2082 13.1985 17.755 13.1055 17.755C12.9814 17.755 12.2526 16.4992 12.2991 16.3461C12.3301 16.2695 13.8188 15.4425 15.6021 14.539C19.1067 12.7472 18.8741 12.8084 20.7039 13.2066ZM21.9599 15.1362C22.3941 15.2894 23.0454 15.4731 23.4021 15.5344C23.8208 15.5957 24.0224 15.7029 23.9448 15.7794C23.6967 16.0245 14.0824 19.7612 13.8963 19.6846C13.6947 19.6233 13.2605 18.2604 13.3846 18.1378C13.4776 18.046 20.9985 14.8453 21.107 14.8453C21.1536 14.8453 21.5412 14.9678 21.9599 15.1362ZM43.9798 15.1362C45.8561 15.6416 46.8486 16.0704 47.0347 16.4686C47.2363 16.9127 46.9571 17.6784 46.4609 18C46.1198 18.2297 33.5281 20.3584 32.5357 20.3584C31.4502 20.3584 28.5814 19.317 28.4418 18.8729C28.4108 18.781 28.5349 18.6585 28.7365 18.5973C28.9381 18.5513 30.2096 18.1532 31.5742 17.7397C42.0879 14.5696 41.9329 14.6002 43.9798 15.1362ZM25.3249 17.2956C26.0072 17.6325 26.7051 17.9081 26.8601 17.9081C27.589 17.9081 27.2013 18.245 26.0383 18.582C19.4013 20.5728 14.3615 22.0277 14.315 21.9664C14.1754 21.8286 13.9894 20.2819 14.0979 20.1747C14.1599 20.1134 15.2609 19.7152 16.5325 19.2864C17.8196 18.8729 20.0061 18.1072 21.4172 17.6172C22.8283 17.1118 24.0068 16.6983 24.0379 16.6983C24.0689 16.683 24.6426 16.9586 25.3249 17.2956ZM28.1782 19.5927C28.6589 19.8377 29.4188 20.1593 29.884 20.3125C30.3492 20.4503 30.7214 20.6035 30.7214 20.6647C30.7214 20.7107 28.3023 21.1548 25.3404 21.6295C22.3631 22.1196 18.719 22.7168 17.2303 22.9619C15.7416 23.2222 14.4701 23.4213 14.408 23.4213C14.3305 23.4213 14.284 23.1763 14.284 22.8853C14.284 22.5943 14.2995 22.3493 14.3305 22.3493C14.4391 22.3493 24.0844 19.8837 25.2939 19.5314C27.0307 19.0567 27.1703 19.0567 28.1782 19.5927Z" fill="white"/>
<path d="M6.00344 19.1639C6.143 20.8025 6.15851 20.8179 6.8098 20.8179C7.61616 20.8179 8.90324 21.4764 9.55453 22.2268C9.84916 22.579 10.2523 23.2528 10.4384 23.7429C10.8106 24.6924 10.7796 24.6771 11.8496 24.3861C12.2062 24.2942 12.1287 24.0492 11.2603 22.2727C10.8881 21.507 10.2368 20.5116 9.81815 20.0368C8.87223 19.0108 7.4611 18.2144 6.54619 18.2144H5.9104L6.00344 19.1639ZM7.4611 20.435C7.4611 20.5575 7.35255 20.6647 7.22849 20.6647C7.10444 20.6647 6.99589 20.5575 6.99589 20.435C6.99589 20.3125 7.10444 20.2053 7.22849 20.2053C7.35255 20.2053 7.4611 20.3125 7.4611 20.435Z" fill="white"/>
<path d="M4.11155 19.0414C2.6539 20.0063 1.0877 22.0584 0.482925 23.7736C0.126265 24.769 -0.168367 28.3066 0.110758 28.1382C0.188293 28.0922 0.265828 28.3373 0.265828 28.6895C0.312349 29.8993 1.5529 32.3956 2.18869 32.564C2.35927 32.61 2.49883 32.7478 2.49883 32.855C2.49883 33.1153 3.69286 33.9883 4.04952 33.9883C4.18909 33.9883 4.4527 34.1108 4.63879 34.2639C4.93342 34.5089 6.65469 35.0143 6.74773 34.8765C6.76324 34.8612 6.74773 34.4017 6.71672 33.8657C6.65469 32.9775 6.62368 32.9009 6.25151 32.8244C4.35966 32.3649 2.59187 30.4966 2.17318 28.5057C2.06463 27.9697 1.95608 27.74 1.83203 27.8166C1.69247 27.8931 1.69247 27.8625 1.81652 27.6941C1.9871 27.4797 2.23521 25.5347 2.2197 24.524C2.2197 24.2024 2.28173 24.0339 2.4368 24.0339C2.56086 24.0339 2.6539 23.9574 2.6539 23.8808C2.6539 23.7889 2.90201 23.3295 3.19664 22.87C3.49127 22.4106 3.73938 21.9359 3.73938 21.798C3.73938 21.6602 3.83243 21.5836 3.94097 21.6296C4.25111 21.7368 4.6698 21.4458 4.6698 21.1242C4.6698 20.9557 4.76284 20.8179 4.87139 20.8179C5.38312 20.8026 5.47616 20.5729 5.36761 19.5315C5.30558 18.9342 5.18153 18.5208 5.07298 18.5208C4.97994 18.5208 4.54574 18.7505 4.11155 19.0414ZM2.03362 23.942C2.03362 23.988 1.97159 24.0646 1.87855 24.1105C1.80102 24.1564 1.72348 24.1258 1.72348 24.0492C1.72348 23.9574 1.80102 23.8808 1.87855 23.8808C1.97159 23.8808 2.03362 23.9114 2.03362 23.942ZM1.41334 26.4995C1.41334 26.5914 1.35131 26.6067 1.25827 26.5608C1.18074 26.5149 1.1032 26.3923 1.1032 26.3158C1.1032 26.2239 1.18074 26.2086 1.25827 26.2545C1.35131 26.3005 1.41334 26.423 1.41334 26.4995Z" fill="white"/>
<path d="M42.0415 20.7253C42.0415 21.5217 42.2431 21.8586 42.8169 22.0271C43.4836 22.2261 44.5226 23.1909 44.5226 23.6198C44.5226 23.7882 44.6312 23.8954 44.8017 23.8648C45.3755 23.8188 45.7787 23.8801 45.6856 24.0332C45.6391 24.1098 45.3755 24.1864 45.1274 24.1864C44.6932 24.1864 44.6622 24.217 44.7087 24.6764C44.7397 24.9521 44.8638 25.2737 44.9878 25.3809C45.1894 25.534 45.1894 25.5494 44.9568 25.4728C44.7397 25.3962 44.6777 25.4575 44.6777 25.7638C44.6777 25.9782 44.4141 26.4223 44.0419 26.8511C43.5612 27.3871 43.3751 27.724 43.3441 28.1834C43.2821 28.9338 43.4992 28.9645 44.6312 28.3213C45.2359 27.9843 45.5771 27.6474 45.9182 27.0502C46.4145 26.1926 46.6471 25.1206 46.4455 24.6918C46.3834 24.5386 46.3214 24.2783 46.3059 24.1098C46.2904 23.9414 46.2749 23.6504 46.2594 23.4513C46.2439 23.2675 46.1198 23.1144 45.9958 23.1144C45.8562 23.1144 45.8097 23.0225 45.8562 22.8847C46.1198 22.2415 45.1274 21.1695 43.8868 20.7407C43.0495 20.4497 42.0415 20.4344 42.0415 20.7253ZM45.391 23.0991C45.329 23.1756 45.391 23.2828 45.484 23.3135C45.7942 23.436 45.329 23.7116 44.9723 23.6198C44.7087 23.5432 44.7087 23.5279 45.0343 23.2522C45.422 22.9306 45.5151 22.9 45.391 23.0991Z" fill="white"/>
<path d="M40.3979 21.0326C39.0333 21.6605 38.3355 22.8856 38.3199 24.6774C38.3199 25.5044 38.382 25.7341 38.5991 25.8566C38.8317 25.9944 38.8317 26.0404 38.6301 26.1935C38.444 26.316 38.506 26.3313 38.9092 26.2701C39.1883 26.2241 39.4054 26.2548 39.4054 26.3313C39.4054 26.4232 39.3124 26.4845 39.1883 26.4845C38.7696 26.4845 38.7541 26.8061 39.1573 27.4033C39.9327 28.5519 42.0261 29.3329 42.2742 28.5672C42.4758 27.9393 42.5068 27.7096 42.3518 27.7096C42.2587 27.7096 42.1967 27.7709 42.1967 27.8628C42.1967 27.9393 42.1191 28.0159 42.0261 28.0159C41.9331 28.0159 41.9021 27.8934 41.9641 27.7249C42.0261 27.5105 41.9486 27.4186 41.6694 27.3421C41.2353 27.2349 40.615 26.4845 40.3824 25.7953C40.2893 25.5197 40.1343 25.3512 40.0102 25.3972C39.8861 25.4278 39.607 25.5044 39.3899 25.5656C39.0333 25.6728 38.9867 25.6422 39.0488 25.3972C39.1108 25.1828 39.2659 25.1062 39.6535 25.1062C40.1808 25.1062 40.1808 25.0909 40.1808 24.4324C40.1808 23.3297 40.5685 22.6559 41.4834 22.1199C41.7005 21.9974 41.7315 21.8442 41.6384 21.3082C41.5919 20.956 41.4523 20.665 41.3593 20.665C41.2663 20.665 40.8321 20.8335 40.3979 21.0326ZM40.1808 26.4998C40.1808 26.5764 40.1188 26.607 40.0257 26.561C39.9482 26.5151 39.8706 26.5457 39.8706 26.6223C39.8706 26.7142 39.7621 26.7908 39.6225 26.7908C39.4054 26.7908 39.4054 26.7448 39.5605 26.561C39.7776 26.3007 40.1808 26.2548 40.1808 26.4998ZM41.3438 27.8628C41.3903 27.9393 41.3593 28.0159 41.2818 28.0159C41.1887 28.0159 41.1112 27.9393 41.1112 27.8628C41.1112 27.7709 41.1422 27.7096 41.1732 27.7096C41.2197 27.7096 41.2973 27.7709 41.3438 27.8628Z" fill="white"/>
<path d="M33.4197 21.9351L32.4583 22.0729L32.5358 22.7161C32.5823 23.053 32.6753 23.4052 32.7374 23.4665C32.7994 23.5431 33.2801 23.5124 33.7918 23.4206C34.5982 23.2827 34.7998 23.298 35.1254 23.4971C35.4046 23.6809 35.5131 23.6962 35.5596 23.5431C35.6062 23.4052 35.6527 23.4052 35.7457 23.5431C35.8078 23.6503 35.7767 23.7268 35.6992 23.7268C35.6062 23.7268 35.5286 23.8953 35.5286 24.0944C35.5286 24.3088 35.3581 24.5998 35.141 24.7682C34.9394 24.9367 34.8153 25.1204 34.8773 25.1817C34.9394 25.2583 34.9083 25.2583 34.8153 25.2123C34.5207 25.0439 33.1871 25.2889 33.094 25.5186C33.0475 25.6258 33.063 25.9627 33.1251 26.269C33.2026 26.7438 33.2646 26.805 33.5592 26.7285C33.7453 26.6978 34.2571 26.6059 34.6913 26.5447C35.3891 26.4681 35.5441 26.4987 35.8233 26.7744C36.0093 26.9582 36.1489 27.2951 36.1489 27.5401C36.1489 27.8005 36.2264 28.0455 36.304 28.0914C36.5056 28.2139 36.5056 28.7806 36.304 28.7806C36.2109 28.7806 36.1024 28.6734 36.0559 28.5509C35.9783 28.3671 35.9008 28.3671 35.6372 28.5049C35.4511 28.6121 35.265 28.704 35.2185 28.704C35.172 28.7193 34.7688 28.7806 34.3346 28.8418L33.5127 28.9644L33.6058 29.5922C33.6678 29.9445 33.7453 30.2814 33.8074 30.3273C33.8539 30.3886 34.4431 30.3273 35.1099 30.1895C35.9473 30.0057 36.2885 29.8832 36.2419 29.7454C36.1489 29.5157 36.397 29.4697 36.5366 29.6994C36.5986 29.8066 36.8002 29.7607 37.0793 29.5922C37.56 29.3166 37.8237 28.9031 37.5755 28.8112C37.3429 28.7346 37.5445 28.168 37.7926 28.168C38.1028 28.168 38.2268 27.4942 38.0097 26.8663C37.8081 26.2843 37.6686 26.269 37.5911 26.8203C37.56 27.0041 37.467 27.2032 37.374 27.2491C37.2964 27.3104 37.2654 27.4635 37.3274 27.6014C37.374 27.7392 37.3584 27.8617 37.2654 27.8617C37.1724 27.8617 37.1413 28.0149 37.2034 28.1986C37.2809 28.5049 37.2499 28.5202 37.0483 28.3671C36.8002 28.1527 36.6916 27.2491 36.9243 27.2491C37.1258 27.2491 37.3895 26.3456 37.2189 26.2537C37.1413 26.1925 37.0173 26.2078 36.9243 26.2537C36.6916 26.3915 36.459 26.1925 36.5676 25.9321C36.6296 25.7637 36.6916 25.7483 36.7692 25.8709C36.8312 25.9781 37.0173 26.024 37.1724 25.9934C37.3895 25.9474 37.2964 25.8555 36.8157 25.6411C36.4435 25.488 36.1489 25.3042 36.1489 25.2276C36.1489 25.1664 36.2575 25.1511 36.3815 25.197C36.5056 25.2583 36.6141 25.2123 36.6141 25.1204C36.6141 24.7988 36.6451 24.7223 36.8002 24.5232C36.9243 24.3854 36.9243 24.2782 36.8002 24.1556C36.5056 23.8647 36.5831 23.6962 36.9398 23.8034C37.2654 23.9106 37.2809 23.88 37.1879 23.344C37.0638 22.6242 36.5676 22.0882 35.8543 21.8891C35.203 21.7207 34.7223 21.7207 33.4197 21.9351ZM35.5286 23.0224C35.5286 23.0683 35.4666 23.1449 35.3736 23.1908C35.296 23.2368 35.2185 23.2062 35.2185 23.1296C35.2185 23.0377 35.296 22.9611 35.3736 22.9611C35.4666 22.9611 35.5286 22.9918 35.5286 23.0224ZM36.366 23.589C36.3195 23.6656 36.2109 23.6962 36.1334 23.635C36.0559 23.589 36.0248 23.4818 36.0869 23.4052C36.1334 23.3287 36.2419 23.298 36.3195 23.3593C36.397 23.4052 36.428 23.5124 36.366 23.589ZM36.1489 24.7988C36.1489 24.8754 36.0869 24.952 35.9938 24.952C35.9163 24.952 35.8388 24.8754 35.8388 24.7988C35.8388 24.707 35.9163 24.6457 35.9938 24.6457C36.0869 24.6457 36.1489 24.707 36.1489 24.7988ZM34.5207 29.24C34.5672 29.3166 34.5362 29.3932 34.4586 29.3932C34.3656 29.3932 34.2881 29.3166 34.2881 29.24C34.2881 29.1481 34.3191 29.0869 34.3501 29.0869C34.3966 29.0869 34.4742 29.1481 34.5207 29.24Z" fill="white"/>
<path d="M30.9851 22.3338C30.6749 22.4103 30.3648 22.5022 30.3183 22.5482C30.2097 22.6554 30.8455 27.1272 31.0471 27.6478C31.1091 27.8163 31.2797 28.0766 31.4193 28.2145C31.6519 28.4442 31.6519 28.4748 31.4348 28.4748C31.1867 28.4748 31.0781 29.2252 31.2952 29.4549C31.3572 29.5162 31.4193 29.7919 31.4193 30.0828C31.4348 30.3891 31.4813 30.6648 31.5278 30.6954C31.5743 30.7413 31.931 30.726 32.3187 30.6801C32.9855 30.5882 33.0475 30.5423 33.1405 30.0828C33.1871 29.7919 33.1716 29.409 33.1095 29.2099C33.0475 29.0261 32.9855 28.7199 32.97 28.5514C32.9545 28.3829 32.939 28.0613 32.9234 27.8163C32.9079 27.5253 32.7839 27.3569 32.5358 27.265C32.2256 27.1425 31.993 26.6371 32.2567 26.6677C32.7529 26.7137 32.7529 26.6371 32.3342 24.2634C32.2101 23.5895 32.1016 22.8698 32.0706 22.6554C32.0396 22.2266 31.838 22.1806 30.9851 22.3338ZM31.6519 23.1148C31.6519 23.1914 31.6209 23.2679 31.5899 23.2679C31.5433 23.2679 31.4658 23.1914 31.4193 23.1148C31.3728 23.0229 31.4038 22.9617 31.4813 22.9617C31.5743 22.9617 31.6519 23.0229 31.6519 23.1148ZM32.0085 27.51C31.9 27.556 31.8069 27.6785 31.8069 27.801C31.8069 27.9235 31.6984 28.0154 31.5588 28.0154C31.3572 28.0154 31.3417 27.9694 31.4813 27.8163C31.5743 27.6938 31.6209 27.5713 31.5743 27.5406C31.5433 27.4947 31.6674 27.4641 31.8535 27.4488C32.0396 27.4488 32.1016 27.4641 32.0085 27.51Z" fill="white"/>
<path d="M26.2244 23.3753C26.2244 23.5438 26.2709 23.896 26.3174 24.1564C26.3949 24.5392 26.5035 24.6311 26.9842 24.7077C27.3564 24.7536 27.744 24.9833 28.0852 25.3356C28.3798 25.6266 28.6745 25.8716 28.7675 25.8716C29.0156 25.8716 29.946 25.1059 29.946 24.8915C29.946 24.6005 29.2017 23.896 28.5194 23.5591C28.2093 23.406 27.558 23.2222 27.0928 23.1763C26.2864 23.0844 26.2244 23.0997 26.2244 23.3753Z" fill="white"/>
<path d="M24.7512 23.5582C23.9138 23.941 23.0299 24.8752 22.7353 25.7022C22.4717 26.4526 22.4252 28.2444 22.6578 28.3975C22.7508 28.4435 22.8128 28.6272 22.8128 28.7804C22.8128 29.0407 22.8749 29.056 23.2005 28.9335C23.5727 28.7957 23.5882 28.811 23.4952 29.2092C23.4331 29.4389 23.3246 29.6686 23.2315 29.7145C23.0144 29.8677 23.9914 30.8172 24.224 30.6794C24.348 30.6181 24.3635 30.6334 24.3015 30.7406C24.162 30.9856 25.1389 31.5676 25.5111 31.4757C25.6816 31.4298 25.9142 31.4757 26.0228 31.5523C26.3329 31.8279 26.612 31.6442 26.3329 31.3532C26.1003 31.1235 26.1158 31.1082 26.457 31.0163C26.7051 30.955 26.7981 30.8478 26.7361 30.6947C26.6896 30.5415 26.55 30.4956 26.3794 30.5415C26.1934 30.6028 26.1158 30.5568 26.1313 30.4037C26.1313 30.2812 25.8987 30.0208 25.6041 29.8217C25.3095 29.6227 24.9528 29.2398 24.8132 28.9795C24.6737 28.7038 24.5341 28.52 24.4876 28.5507C24.4566 28.5966 24.4256 28.4741 24.4256 28.275C24.4411 28.0453 24.3635 27.9534 24.2085 27.9993C23.7122 28.1219 23.3866 28.0759 23.3091 27.8921C23.2625 27.739 23.3866 27.6931 23.7588 27.739L24.286 27.7849L24.3635 26.9426C24.4721 25.9319 24.6427 25.5797 25.3715 24.9824C25.8832 24.5689 25.9142 24.4924 25.8212 23.9104C25.7126 23.1906 25.6196 23.16 24.7512 23.5582ZM24.4411 29.102C24.4876 29.1632 24.379 29.2092 24.2085 29.1939C24.0534 29.1785 23.8673 29.0867 23.8363 28.9948C23.7588 28.7957 24.317 28.8876 24.4411 29.102Z" fill="white"/>
<path d="M17.1218 24.6768L16.331 24.8146L15.9123 26.9739C15.6952 28.1684 15.4781 29.4548 15.4471 29.8377C15.416 30.2206 15.292 30.925 15.1834 31.3844C15.0749 31.8439 14.9974 32.533 15.0284 32.9006L15.0749 33.5591L15.8037 33.4519C16.2069 33.3906 16.5791 33.2987 16.6411 33.2375C16.7807 33.115 16.8117 32.8546 17.2924 29.3476C17.4785 27.9387 17.6801 26.7748 17.7576 26.7748C17.9592 26.7748 19.1222 29.3629 19.0137 29.5467C18.9671 29.6233 18.7345 29.6999 18.5019 29.6999C17.8661 29.6999 17.6646 29.9143 17.587 30.6647L17.5095 31.3538L18.0988 31.2313C19.9596 30.8484 19.82 30.8178 20.2852 31.7673L20.7039 32.6249L21.4172 32.5177C22.9834 32.288 23.0455 32.6862 20.6729 28.3675C18.9671 25.2587 18.4864 24.5083 18.2383 24.5236C18.0677 24.5236 17.5715 24.6002 17.1218 24.6768ZM16.3775 33.0537C16.2844 33.1303 15.9898 32.9006 15.9898 32.7474C15.9898 32.6708 16.0828 32.6862 16.2069 32.7934C16.331 32.9006 16.393 33.0231 16.3775 33.0537Z" fill="white"/>
<path d="M28.7987 28.6739C28.7522 28.8883 28.473 29.2558 28.1939 29.5008C27.7907 29.8531 27.6667 30.0675 27.6822 30.435C27.6977 30.7107 27.6512 30.9251 27.5891 30.9251C27.5116 30.9251 27.4651 31.0323 27.4651 31.1548C27.4651 31.5223 28.1164 31.4304 28.8917 30.9404C29.6206 30.481 30.1323 29.8837 30.4114 29.1792C30.551 28.8117 30.52 28.7504 30.1323 28.6126C29.1864 28.2604 28.9072 28.2604 28.7987 28.6739Z" fill="white"/>
<path d="M13.3226 31.5229C13.2141 31.7067 13.0435 31.8445 12.9349 31.8445C12.8264 31.8445 12.7333 31.9058 12.7333 31.9671C12.7333 32.0283 12.4232 32.1815 12.0355 32.2887C11.6479 32.3959 11.3842 32.549 11.4308 32.6256C11.4773 32.7022 11.3998 32.7175 11.2757 32.6715C10.9811 32.5643 10.4073 32.8706 10.4073 33.1463C10.4073 33.2688 10.3453 33.376 10.2522 33.376C10.1747 33.376 10.0972 33.2841 10.0972 33.1769C10.0972 33.0391 9.70949 32.9931 8.68603 32.9931H7.2749L7.36794 33.667C7.41446 34.0345 7.46099 34.4633 7.46099 34.6164C7.46099 35.0299 8.56198 34.9993 10.7485 34.5399C13.3226 34.0039 13.5087 33.8967 13.3691 33.0391C13.3691 32.9778 13.4312 32.5643 13.5242 32.1508C13.7103 31.2779 13.6328 31.0329 13.3226 31.5229Z" fill="white"/>
</svg>
