<svg width="102" height="93" viewBox="0 0 102 93" fill="none" xmlns="http://www.w3.org/2000/svg">
    <path d="M47.0769 8.08339C39.1499 2.96782 29.7236 0 19.6154 0C13.6616 0 7.938 1.03018 2.61573 2.92666C1.0481 3.48526 0 4.97942 0 6.65564V81.8015C0 83.0853 0.618162 84.2893 1.65794 85.0306C2.69772 85.7719 4.02972 85.9583 5.23043 85.5304C9.7246 83.929 14.5646 83.0559 19.6154 83.0559C30.0508 83.0559 39.6139 86.7855 47.0769 93V8.08339Z" fill="#FF0000"/>
    <path d="M54.9231 93C62.3861 86.7855 71.9491 83.0559 82.3846 83.0559C87.4354 83.0559 92.2754 83.929 96.7696 85.5304C97.9703 85.9583 99.3023 85.7719 100.342 85.0306C101.382 84.2893 102 83.0853 102 81.8015V6.65564C102 4.97942 100.952 3.48526 99.3843 2.92666C94.062 1.03018 88.3384 0 82.3846 0C72.2763 0 62.8501 2.96782 54.9231 8.0834V93Z" fill="#FF0000"/>
</svg>
