<svg width="113" height="106" viewBox="0 0 113 106" fill="none" xmlns="http://www.w3.org/2000/svg">
    <path
        d="M18.3656 2.2191C29.5291 0.754937 40.9112 0 52.4658 0C64.0193 0 75.4003 0.754786 86.5627 2.21866C96.9063 3.57515 104.274 12.336 104.887 22.4771C103.134 21.8857 101.276 21.4933 99.3325 21.3304C91.8607 20.7039 84.3051 20.3846 76.6784 20.3846C69.0518 20.3846 61.4963 20.7039 54.0247 21.3303C41.3349 22.3943 32.2857 33.2387 32.2857 45.4343V68.7298C32.2857 77.92 37.4228 86.3363 45.3765 90.3872L31.1037 104.806C29.9495 105.972 28.2136 106.321 26.7056 105.69C25.1976 105.059 24.2143 103.572 24.2143 101.923V80.0192C22.2583 79.8076 20.3086 79.5742 18.3656 79.3194C7.55842 77.902 0 68.4015 0 57.6891V23.8493C0 13.137 7.55839 3.63653 18.3656 2.2191Z"
        fill="#FF0000" />
    <path
        d="M76.6784 28.5384C69.2749 28.5384 61.9421 28.8484 54.6923 29.4562C46.4094 30.1507 40.3571 37.2512 40.3571 45.4343V68.7298C40.3571 76.9253 46.4267 84.0298 54.72 84.7136C61.4131 85.2656 68.1769 85.5675 75.0017 85.61L89.9677 100.729C91.122 101.895 92.8578 102.244 94.3658 101.613C95.8739 100.982 96.8571 99.495 96.8571 97.846V84.8548C97.4509 84.8099 98.0441 84.763 98.6368 84.7141C106.93 84.0304 113 76.9259 113 68.7302V45.4344C113 37.2512 106.948 30.1508 98.6649 29.4563C91.4149 28.8484 84.082 28.5384 76.6784 28.5384Z"
        fill="#FF0000" />
</svg>