<svg width="104" height="77" viewBox="0 0 104 77" fill="none" xmlns="http://www.w3.org/2000/svg">
    <path
        d="M67.0184 0.917568C65.2425 2.0568 37.3984 21.4237 30.3619 26.4498C27.6144 28.3932 23.5935 31.2077 21.4826 32.6485C19.3717 34.0893 17.2943 35.5301 16.8587 35.8652L16.1215 36.4348L17.5288 37.2725C21.9182 39.8525 25.738 44.912 27.5809 50.6082C28.184 52.5181 28.452 52.9202 29.0552 52.9202C29.4572 52.9202 36.0246 51.9485 43.6306 50.7422C72.7146 46.1518 76.9029 45.4816 87.9937 43.7058C94.2594 42.7006 99.7546 41.6619 100.157 41.4608C102.234 40.3886 103.876 36.8369 102.871 35.5971C102.603 35.2956 101.128 34.4579 99.5535 33.7208C97.9787 32.9836 96.6719 32.347 96.6049 32.3135C96.5714 32.28 96.7725 31.6768 97.0405 31.0067C97.3421 30.3031 97.5431 29.1973 97.4761 28.5272C97.3756 27.3545 97.2416 27.2204 94.628 25.9472L91.8805 24.6069L92.0815 22.697C92.4166 19.3798 92.3831 19.3463 86.4859 16.0962C86.2178 15.9286 86.0503 15.5265 86.1173 15.1915C86.7204 12.2094 86.0503 11.1036 82.398 9.19375C80.3876 8.12154 80.0861 7.85348 80.2536 7.21685C80.3541 6.81477 80.2871 5.94359 80.1196 5.27346C79.684 3.76565 77.2045 1.98978 73.9208 0.817047C70.7377 -0.288677 68.9283 -0.288677 67.0184 0.917568ZM76.5678 2.99499C78.5112 3.93318 79.1479 4.67033 79.3489 6.37918C79.5499 7.75296 79.5164 7.78647 78.7458 7.55192C78.3102 7.41789 77.171 7.25036 76.1993 7.11633C74.5909 6.9488 74.2894 7.04932 70.6706 8.95921C68.5932 10.0649 62.2939 13.6167 56.6648 16.8668L46.4787 22.764L44.2673 22.7305C41.8213 22.697 40.5145 22.429 40.347 21.8928C40.2129 21.4573 67.9231 2.82746 69.4309 2.35836C71.1062 1.85576 74.8925 2.19083 76.5678 2.99499ZM81.1583 9.49532C84.8775 11.0031 86.2513 12.5779 85.4472 14.4543C85.2461 14.9569 85.0451 15.3925 84.9781 15.3925C84.9445 15.3925 84.0399 15.091 82.9676 14.7224C80.4881 13.8847 79.2819 13.8847 76.9029 14.7559C75.8307 15.158 69.5314 18.2071 62.8971 21.5243L50.8011 27.522L48.5561 27.3545C47.3164 27.2539 45.9091 26.9524 45.4065 26.6843L44.5018 26.2152L46.4787 25.1095C47.5844 24.5064 49.6619 23.3001 51.1362 22.3954C56.0952 19.4468 68.8613 12.2764 72.3125 10.467C76.3668 8.38959 78.0421 8.18855 81.1583 9.49532ZM86.9214 17.4029C90.8082 19.0448 92.4501 21.3567 91.0428 23.2666C90.6072 23.8697 90.5402 23.8697 88.6638 23.1661C87.6251 22.764 86.1843 22.429 85.4807 22.429C84.3079 22.429 69.833 27.723 61.1882 31.3083C57.4354 32.8496 54.2523 33.1846 50.9686 32.347C49.7624 32.0454 48.5896 31.5763 48.3216 31.3083C47.886 30.9062 48.1205 30.7051 49.9969 29.834C52.1414 28.8623 54.8554 27.589 70.9052 20.0835L79.617 16.0291L81.9624 16.1632C83.6378 16.2637 85.0786 16.6323 86.9214 17.4029ZM40.5145 24.5064C41.6537 24.7074 42.5919 24.9755 42.5919 25.076C42.5919 25.3105 26.0395 34.4914 25.604 34.4914C25.4364 34.4914 25.0343 34.1563 24.6993 33.7878C24.2972 33.2852 24.1967 32.9836 24.4647 32.7155C24.6658 32.5145 27.5809 30.4371 30.9315 28.0581C35.3544 24.9755 37.2643 23.8362 37.7334 23.9703C38.102 24.0373 39.3418 24.3053 40.5145 24.5064ZM91.5119 25.4781C95.8678 27.1534 97.4091 29.1303 95.9013 31.1072L95.2982 31.8779L92.9862 31.3083C88.0607 30.035 88.9654 29.8675 69.9 35.8317C62.9306 38.0096 62.0259 38.2442 60.3505 38.0431C58.5077 37.8086 55.5926 36.6358 55.425 35.9992C55.358 35.7982 60.183 33.8548 66.1472 31.6768C72.0779 29.4654 78.8128 26.9524 81.1248 26.0812C86.3183 24.1043 87.7591 24.0038 91.5119 25.4781ZM44.7364 28.8958C45.8421 29.1303 46.7803 29.4989 46.8473 29.6664C46.9143 29.834 44.5688 31.1407 41.6872 32.548C35.6895 35.4631 28.519 38.8473 28.318 38.8473C28.05 38.8473 26.4751 36.0997 26.5757 35.7647C26.6427 35.5971 29.8593 33.7878 33.7126 31.8109C41.2852 27.8906 40.7825 28.0246 44.7364 28.8958ZM47.4504 33.1176C48.3886 33.4527 49.7959 33.8548 50.5665 33.9888C51.4712 34.1228 51.9068 34.3574 51.7393 34.5249C51.2032 35.061 30.4289 43.2367 30.0269 43.0692C29.5913 42.9351 28.6531 39.953 28.9211 39.685C29.1222 39.4839 45.373 32.481 45.6075 32.481C45.7081 32.481 46.5457 32.7491 47.4504 33.1176ZM95.0301 33.1176C99.0844 34.2234 101.229 35.1615 101.631 36.0327C102.067 37.0044 101.463 38.6798 100.391 39.3834C99.654 39.886 72.4465 44.5435 70.3021 44.5435C67.9566 44.5435 61.7578 42.265 61.4563 41.2933C61.3892 41.0923 61.6573 40.8242 62.0929 40.6902C62.5285 40.5897 65.276 39.7185 68.2246 38.8138C90.9423 31.8779 90.6072 31.9449 95.0301 33.1176ZM54.7214 37.8421C56.1957 38.5792 57.7035 39.1824 58.0386 39.1824C59.6134 39.1824 58.7757 39.9195 56.2627 40.6567C41.9218 45.0126 31.0321 48.1957 30.9315 48.0617C30.63 47.7601 30.2279 44.3759 30.4624 44.1414C30.5965 44.0073 32.9755 43.1362 35.723 42.198C38.5041 41.2933 43.2285 39.618 46.2777 38.5457C49.3268 37.44 51.8733 36.5353 51.9403 36.5353C52.0073 36.5018 53.2471 37.1049 54.7214 37.8421ZM60.8866 42.8681C61.9254 43.4042 63.5672 44.1079 64.5724 44.4429C65.5776 44.7445 66.3818 45.0796 66.3818 45.2136C66.3818 45.3141 61.1547 46.2858 54.7549 47.3245C48.3216 48.3967 40.4475 49.7035 37.2308 50.2396C34.0142 50.8092 31.2666 51.2448 31.1326 51.2448C30.965 51.2448 30.8645 50.7087 30.8645 50.0721C30.8645 49.4355 30.898 48.8993 30.965 48.8993C31.1996 48.8993 52.0408 43.5047 54.6544 42.7341C58.4071 41.6954 58.7087 41.6954 60.8866 42.8681Z"
        fill="white" />
    <path
        d="M12.9719 41.9302C13.2735 45.5154 13.307 45.5489 14.7143 45.5489C16.4566 45.5489 19.2377 46.9897 20.645 48.6316C21.2816 49.4022 22.1528 50.8765 22.5549 51.9487C23.359 54.0262 23.292 53.9926 25.604 53.356C26.3746 53.155 26.2071 52.6189 24.3307 48.7321C23.5266 47.0567 22.1193 44.8788 21.2146 43.8401C19.1707 41.5951 16.1216 39.8528 14.1447 39.8528H12.7709L12.9719 41.9302ZM16.1216 44.7113C16.1216 44.9793 15.887 45.2139 15.619 45.2139C15.3509 45.2139 15.1164 44.9793 15.1164 44.7113C15.1164 44.4432 15.3509 44.2087 15.619 44.2087C15.887 44.2087 16.1216 44.4432 16.1216 44.7113Z"
        fill="white" />
    <path
        d="M8.88408 41.6621C5.73444 43.773 2.35025 48.2629 1.04349 52.0157C0.272829 54.1936 -0.363801 61.9337 0.239322 61.5652C0.406856 61.4646 0.574391 62.0007 0.574391 62.7714C0.674911 65.4184 3.35546 70.88 4.72924 71.2486C5.09781 71.3491 5.39937 71.6507 5.39937 71.8853C5.39937 72.4549 7.9794 74.3648 8.75006 74.3648C9.05162 74.3648 9.62123 74.6328 10.0233 74.9679C10.6599 75.504 14.3792 76.6097 14.5802 76.3082C14.6138 76.2746 14.5802 75.2694 14.5132 74.0967C14.3792 72.1533 14.3122 71.9858 13.508 71.8182C9.42019 70.813 5.60041 66.7252 4.69573 62.3693C4.46118 61.1966 4.22663 60.694 3.95858 60.8615C3.65702 61.029 3.65702 60.962 3.92507 60.5935C4.29365 60.1244 4.82976 55.869 4.79625 53.6575C4.79625 52.9539 4.93028 52.5853 5.26535 52.5853C5.5334 52.5853 5.73444 52.4178 5.73444 52.2503C5.73444 52.0492 6.27055 51.044 6.90718 50.0388C7.54381 49.0336 8.07992 47.9949 8.07992 47.6933C8.07992 47.3918 8.28096 47.2242 8.51551 47.3247C9.18565 47.5593 10.0903 46.9227 10.0903 46.219C10.0903 45.8504 10.2914 45.5489 10.5259 45.5489C11.6316 45.5154 11.8327 45.0128 11.5981 42.7343C11.4641 41.4275 11.1961 40.5229 10.9615 40.5229C10.7605 40.5229 9.82228 41.0255 8.88408 41.6621ZM4.39417 52.3843C4.39417 52.4848 4.26014 52.6523 4.0591 52.7529C3.89157 52.8534 3.72403 52.7864 3.72403 52.6188C3.72403 52.4178 3.89157 52.2503 4.0591 52.2503C4.26014 52.2503 4.39417 52.3173 4.39417 52.3843ZM3.0539 57.9799C3.0539 58.181 2.91987 58.2145 2.71883 58.1139C2.55129 58.0134 2.38376 57.7454 2.38376 57.5778C2.38376 57.3768 2.55129 57.3433 2.71883 57.4438C2.91987 57.5443 3.0539 57.8124 3.0539 57.9799Z"
        fill="white" />
    <path
        d="M90.8418 45.3479C90.8418 47.0903 91.2774 47.8274 92.5172 48.196C93.958 48.6316 96.2029 50.7425 96.2029 51.6807C96.2029 52.0493 96.4375 52.2838 96.806 52.2168C98.0458 52.1163 98.917 52.2503 98.7159 52.5854C98.6154 52.7529 98.0458 52.9204 97.5097 52.9204C96.5715 52.9204 96.5045 52.9875 96.605 53.9927C96.672 54.5958 96.9401 55.2994 97.2081 55.534C97.6437 55.869 97.6437 55.9026 97.1411 55.735C96.672 55.5675 96.538 55.7015 96.538 56.3717C96.538 56.8407 95.9684 57.8124 95.1642 58.7506C94.1255 59.9234 93.7234 60.6605 93.6564 61.6657C93.5224 63.3076 93.9915 63.3746 96.4375 61.9673C97.7442 61.2301 98.4814 60.493 99.2185 59.1862C100.291 57.3098 100.793 54.9644 100.358 54.0262C100.224 53.6911 100.09 53.1215 100.056 52.7529C100.023 52.3843 99.9892 51.7477 99.9557 51.3121C99.9222 50.91 99.6541 50.575 99.3861 50.575C99.0845 50.575 98.984 50.3739 99.0845 50.0724C99.6541 48.6651 97.5097 46.3196 94.8291 45.3814C93.0198 44.7448 90.8418 44.7113 90.8418 45.3479ZM98.0793 50.5415C97.9453 50.709 98.0793 50.9435 98.2803 51.0106C98.9505 51.2786 97.9453 51.8817 97.1746 51.6807C96.605 51.5132 96.605 51.4797 97.3086 50.8765C98.1463 50.1729 98.3474 50.1059 98.0793 50.5415Z"
        fill="white" />
    <path
        d="M87.2901 46.0177C84.3415 47.3915 82.8337 50.0721 82.8002 53.9924C82.8002 55.8017 82.9342 56.3043 83.4033 56.5724C83.9059 56.8739 83.9059 56.9745 83.4703 57.3095C83.0682 57.5776 83.2023 57.6111 84.0734 57.4771C84.6766 57.3765 85.1456 57.4436 85.1456 57.6111C85.1456 57.8121 84.9446 57.9462 84.6766 57.9462C83.7719 57.9462 83.7384 58.6498 84.6095 59.9566C86.2849 62.4696 90.8083 64.1784 91.3444 62.5031C91.78 61.1293 91.847 60.6267 91.5119 60.6267C91.3109 60.6267 91.1769 60.7607 91.1769 60.9618C91.1769 61.1293 91.0093 61.2968 90.8083 61.2968C90.6073 61.2968 90.5402 61.0288 90.6743 60.6602C90.8083 60.1911 90.6408 59.9901 90.0376 59.8225C89.0995 59.588 87.7592 57.9462 87.2566 56.4384C87.0555 55.8352 86.7205 55.4667 86.4524 55.5672C86.1844 55.6342 85.5812 55.8017 85.1121 55.9358C84.3415 56.1703 84.241 56.1033 84.375 55.5672C84.509 55.0981 84.8441 54.9306 85.6818 54.9306C86.821 54.9306 86.821 54.897 86.821 53.4563C86.821 51.0438 87.6587 49.5695 89.6356 48.3967C90.1047 48.1287 90.1717 47.7936 89.9706 46.6209C89.8701 45.8502 89.5686 45.2136 89.3675 45.2136C89.1665 45.2136 88.2283 45.5821 87.2901 46.0177ZM86.821 57.9797C86.821 58.1472 86.687 58.2142 86.4859 58.1137C86.3184 58.0132 86.1509 58.0802 86.1509 58.2477C86.1509 58.4488 85.9163 58.6163 85.6147 58.6163C85.1456 58.6163 85.1456 58.5158 85.4807 58.1137C85.9498 57.5441 86.821 57.4436 86.821 57.9797ZM89.334 60.9618C89.4345 61.1293 89.3675 61.2968 89.2 61.2968C88.9989 61.2968 88.8314 61.1293 88.8314 60.9618C88.8314 60.7607 88.8984 60.6267 88.9654 60.6267C89.0659 60.6267 89.2335 60.7607 89.334 60.9618Z"
        fill="white" />
    <path
        d="M72.212 47.9945L70.1346 48.2961L70.3021 49.7034C70.4026 50.4405 70.6037 51.2112 70.7377 51.3452C70.8717 51.5127 71.9104 51.4457 73.0162 51.2447C74.7585 50.9431 75.1941 50.9766 75.8978 51.4122C76.5009 51.8143 76.7354 51.8478 76.8359 51.5127C76.9365 51.2112 77.037 51.2112 77.238 51.5127C77.3721 51.7473 77.305 51.9148 77.1375 51.9148C76.9365 51.9148 76.7689 52.2834 76.7689 52.719C76.7689 53.1881 76.4004 53.8247 75.9313 54.1933C75.4957 54.5618 75.2276 54.9639 75.3616 55.098C75.4957 55.2655 75.4287 55.2655 75.2276 55.165C74.591 54.7964 71.7094 55.3325 71.5084 55.8351C71.4078 56.0697 71.4413 56.8068 71.5754 57.4769C71.7429 58.5157 71.8769 58.6497 72.5136 58.4821C72.9156 58.4151 74.0214 58.2141 74.9596 58.0801C76.4674 57.9125 76.8024 57.9795 77.4056 58.5827C77.8076 58.9847 78.1092 59.7219 78.1092 60.258C78.1092 60.8276 78.2767 61.3637 78.4443 61.4643C78.8799 61.7323 78.8799 62.9721 78.4443 62.9721C78.2432 62.9721 78.0087 62.7375 77.9082 62.4695C77.7406 62.0674 77.5731 62.0674 77.0035 62.3689C76.6014 62.6035 76.1993 62.8045 76.0988 62.8045C75.9983 62.838 75.1271 62.9721 74.1889 63.1061L72.413 63.3741L72.6141 64.7479C72.7481 65.5186 72.9156 66.2557 73.0497 66.3563C73.1502 66.4903 74.4235 66.3563 75.8643 66.0547C77.6736 65.6526 78.4108 65.3846 78.3102 65.083C78.1092 64.5804 78.6453 64.4799 78.9469 64.9825C79.0809 65.217 79.5165 65.1165 80.1196 64.7479C81.1583 64.1448 81.7279 63.2401 81.1918 63.0391C80.6892 62.8715 81.1248 61.6318 81.6609 61.6318C82.3311 61.6318 82.5991 60.1575 82.13 58.7837C81.6944 57.5104 81.3929 57.4769 81.2253 58.6832C81.1583 59.0853 80.9573 59.5209 80.7562 59.6214C80.5887 59.7554 80.5217 60.0905 80.6557 60.392C80.7562 60.6936 80.7227 60.9617 80.5217 60.9617C80.3207 60.9617 80.2536 61.2967 80.3877 61.6988C80.5552 62.3689 80.4882 62.4024 80.0526 62.0674C79.5165 61.5983 79.2819 59.6214 79.7845 59.6214C80.2201 59.6214 80.7898 57.6445 80.4212 57.4434C80.2536 57.3094 79.9856 57.3429 79.7845 57.4434C79.2819 57.745 78.7793 57.3094 79.0139 56.7398C79.1479 56.3712 79.2819 56.3377 79.4495 56.6058C79.5835 56.8403 79.9856 56.9408 80.3207 56.8738C80.7898 56.7733 80.5887 56.5723 79.55 56.1032C78.7458 55.7681 78.1092 55.366 78.1092 55.1985C78.1092 55.0644 78.3438 55.0309 78.6118 55.1315C78.8799 55.2655 79.1144 55.165 79.1144 54.9639C79.1144 54.2603 79.1814 54.0928 79.5165 53.6572C79.7845 53.3556 79.7845 53.1211 79.5165 52.853C78.8799 52.2164 79.0474 51.8478 79.8181 52.0823C80.5217 52.3169 80.5552 52.2499 80.3542 51.0771C80.0861 49.5023 79.0139 48.3296 77.4726 47.894C76.0653 47.5254 75.0266 47.5254 72.212 47.9945ZM76.7689 50.3735C76.7689 50.474 76.6349 50.6415 76.4339 50.7421C76.2663 50.8426 76.0988 50.7756 76.0988 50.608C76.0988 50.407 76.2663 50.2395 76.4339 50.2395C76.6349 50.2395 76.7689 50.3065 76.7689 50.3735ZM78.5783 51.6132C78.4778 51.7808 78.2432 51.8478 78.0757 51.7138C77.9082 51.6132 77.8412 51.3787 77.9752 51.2112C78.0757 51.0436 78.3102 50.9766 78.4778 51.1106C78.6453 51.2112 78.7123 51.4457 78.5783 51.6132ZM78.1092 54.2603C78.1092 54.4278 77.9752 54.5954 77.7741 54.5954C77.6066 54.5954 77.4391 54.4278 77.4391 54.2603C77.4391 54.0592 77.6066 53.9252 77.7741 53.9252C77.9752 53.9252 78.1092 54.0592 78.1092 54.2603ZM74.591 63.9773C74.6915 64.1448 74.6245 64.3123 74.457 64.3123C74.2559 64.3123 74.0884 64.1448 74.0884 63.9773C74.0884 63.7762 74.1554 63.6422 74.2224 63.6422C74.3229 63.6422 74.4905 63.7762 74.591 63.9773Z"
        fill="white" />
    <path
        d="M66.9514 48.8658C66.2813 49.0333 65.6111 49.2343 65.5106 49.3349C65.2761 49.5694 66.6499 59.3534 67.0854 60.4926C67.2195 60.8612 67.588 61.4308 67.8896 61.7324C68.3922 62.235 68.3922 62.302 67.9231 62.302C67.387 62.302 67.1525 63.9438 67.6216 64.4464C67.7556 64.5805 67.8896 65.1836 67.8896 65.8202C67.9231 66.4904 68.0236 67.0935 68.1242 67.1605C68.2247 67.261 68.9953 67.2275 69.833 67.127C71.2738 66.9259 71.4078 66.8254 71.6089 65.8202C71.7094 65.1836 71.6759 64.3459 71.5419 63.9103C71.4078 63.5083 71.2738 62.8381 71.2403 62.4695C71.2068 62.101 71.1733 61.3973 71.1398 60.8612C71.1063 60.2246 70.8382 59.856 70.3021 59.655C69.632 59.3869 69.1294 58.2812 69.699 58.3482C70.7712 58.4487 70.7712 58.2812 69.8665 53.0876C69.5985 51.6133 69.3639 50.0385 69.2969 49.5694C69.2299 48.6312 68.7943 48.5307 66.9514 48.8658ZM68.3922 50.5746C68.3922 50.7422 68.3252 50.9097 68.2582 50.9097C68.1577 50.9097 67.9901 50.7422 67.8896 50.5746C67.7891 50.3736 67.8561 50.2395 68.0236 50.2395C68.2247 50.2395 68.3922 50.3736 68.3922 50.5746ZM69.1629 60.1911C68.9283 60.2916 68.7273 60.5597 68.7273 60.8277C68.7273 61.0958 68.4927 61.2968 68.1912 61.2968C67.7556 61.2968 67.7221 61.1963 68.0236 60.8612C68.2247 60.5932 68.3252 60.3251 68.2247 60.2581C68.1577 60.1576 68.4257 60.0906 68.8278 60.057C69.2299 60.057 69.3639 60.0906 69.1629 60.1911Z"
        fill="white" />
    <path
        d="M56.6648 51.1443C56.6648 51.5129 56.7653 52.2836 56.8658 52.8532C57.0334 53.6909 57.2679 53.8919 58.3066 54.0594C59.1108 54.16 59.9485 54.6626 60.6856 55.4332C61.3222 56.0698 61.9589 56.606 62.1599 56.606C62.696 56.606 64.7064 54.9306 64.7064 54.4615C64.7064 53.8249 63.0981 52.2836 61.6238 51.5464C60.9537 51.2114 59.5464 50.8093 58.5412 50.7088C56.7988 50.5077 56.6648 50.5412 56.6648 51.1443Z"
        fill="white" />
    <path
        d="M53.4817 51.5467C51.6723 52.3844 49.7625 54.4283 49.1258 56.2377C48.5562 57.8795 48.4557 61.7998 48.9583 62.1349C49.1593 62.2354 49.2934 62.6375 49.2934 62.9725C49.2934 63.5422 49.4274 63.5757 50.131 63.3076C50.9352 63.0061 50.9687 63.0396 50.7677 63.9107C50.6336 64.4133 50.3991 64.9159 50.198 65.0165C49.729 65.3515 51.8399 67.429 52.3425 67.1274C52.6105 66.9934 52.644 67.0269 52.51 67.2614C52.2085 67.7975 54.3194 69.0708 55.1235 68.8697C55.4921 68.7692 55.9947 68.8697 56.2293 69.0373C56.8994 69.6404 57.5025 69.2383 56.8994 68.6017C56.3968 68.0991 56.4303 68.0656 57.1675 67.8645C57.7036 67.7305 57.9046 67.496 57.7706 67.1609C57.6701 66.8258 57.3685 66.7253 56.9999 66.8258C56.5978 66.9599 56.4303 66.8593 56.4638 66.5243C56.4638 66.2562 55.9612 65.6866 55.3246 65.251C54.688 64.8154 53.9173 63.9778 53.6157 63.4081C53.3142 62.805 53.0126 62.4029 52.9121 62.4699C52.8451 62.5705 52.7781 62.3024 52.7781 61.8668C52.8116 61.3642 52.644 61.1632 52.309 61.2637C51.2368 61.5318 50.5331 61.4312 50.3656 61.0292C50.2651 60.6941 50.5331 60.5936 51.3373 60.6941L52.4765 60.7946L52.644 58.9517C52.8786 56.7403 53.2472 55.9696 54.822 54.6629C55.9277 53.7582 55.9947 53.5906 55.7937 52.3174C55.5591 50.7426 55.3581 50.6755 53.4817 51.5467ZM52.8116 63.6762C52.9121 63.8102 52.6776 63.9107 52.309 63.8772C51.9739 63.8437 51.5718 63.6427 51.5048 63.4416C51.3373 63.0061 52.5435 63.2071 52.8116 63.6762Z"
        fill="white" />
    <path
        d="M36.9963 53.9923L35.2874 54.2939L34.3828 59.0183C33.9137 61.6319 33.4446 64.4464 33.3776 65.2841C33.3105 66.1218 33.0425 67.6631 32.8079 68.6683C32.5734 69.6735 32.4059 71.1813 32.4729 71.9855L32.5734 73.4263L34.1482 73.1917C35.0194 73.0577 35.8236 72.8567 35.9576 72.7226C36.2591 72.4546 36.3262 71.885 37.3649 64.2119C37.7669 61.1293 38.2025 58.5827 38.3701 58.5827C38.8057 58.5827 41.3187 64.2454 41.0841 64.6475C40.9836 64.815 40.481 64.9825 39.9784 64.9825C38.6046 64.9825 38.169 65.4516 38.0015 67.0935L37.834 68.6013L39.1072 68.3332C43.128 67.4956 42.8265 67.4285 43.8317 69.506L44.7364 71.3824L46.2777 71.1478C49.6619 70.6452 49.7959 71.5164 44.6694 62.0675C40.9836 55.2656 39.9449 53.6237 39.4088 53.6572C39.0402 53.6572 37.968 53.8248 36.9963 53.9923ZM35.388 72.3205C35.1869 72.4881 34.5503 71.9855 34.5503 71.6504C34.5503 71.4829 34.7513 71.5164 35.0194 71.7509C35.2874 71.9855 35.4215 72.2535 35.388 72.3205Z"
        fill="white" />
    <path
        d="M62.227 62.7379C62.1265 63.207 61.5233 64.0112 60.9202 64.5473C60.049 65.318 59.781 65.787 59.8145 66.5912C59.848 67.1943 59.7475 67.6634 59.6135 67.6634C59.4459 67.6634 59.3454 67.898 59.3454 68.166C59.3454 68.9702 60.7527 68.7692 62.428 67.6969C64.0028 66.6917 65.1086 65.385 65.7117 63.8437C66.0133 63.0395 65.9462 62.9055 65.1086 62.6039C63.0647 61.8332 62.4615 61.8332 62.227 62.7379Z"
        fill="white" />
    <path
        d="M28.7871 68.97C28.5525 69.3721 28.184 69.6737 27.9494 69.6737C27.7149 69.6737 27.5138 69.8077 27.5138 69.9417C27.5138 70.0757 26.8437 70.4108 26.006 70.6454C25.1683 70.8799 24.5987 71.215 24.6993 71.3825C24.7998 71.55 24.6322 71.5835 24.3642 71.483C23.7276 71.2485 22.4878 71.9186 22.4878 72.5217C22.4878 72.7898 22.3538 73.0243 22.1527 73.0243C21.9852 73.0243 21.8177 72.8233 21.8177 72.5888C21.8177 72.2872 20.98 72.1867 18.7685 72.1867H15.7194L15.9205 73.661C16.021 74.4651 16.1215 75.4033 16.1215 75.7384C16.1215 76.6431 18.5005 76.5761 23.225 75.5709C28.7871 74.3981 29.1892 74.1636 28.8876 72.2872C28.8876 72.1532 29.0216 71.2485 29.2227 70.3438C29.6248 68.4339 29.4572 67.8978 28.7871 68.97Z"
        fill="white" />
</svg>