<svg width="74" height="95" viewBox="0 0 74 95" fill="none" xmlns="http://www.w3.org/2000/svg">
<path fill-rule="evenodd" clip-rule="evenodd" d="M23.5455 0H8.40909C3.76488 0 0 3.79758 0 8.48214V86.5179C0 91.2024 3.76488 95 8.40909 95H65.5909C70.2351 95 74 91.2024 74 86.5179V50.8929C74 41.5237 66.4702 33.9286 57.1818 33.9286H48.7727C44.1285 33.9286 40.3636 30.131 40.3636 25.4464V16.9643C40.3636 7.59517 32.8339 0 23.5455 0ZM53.1917 49.4721C54.2714 47.9473 53.9213 45.8283 52.4096 44.7391C50.898 43.65 48.7972 44.0031 47.7174 45.5279L33.2071 66.0188L25.9239 58.6723C24.6103 57.3473 22.4806 57.3473 21.167 58.6723C19.8534 59.9973 19.8534 62.1455 21.167 63.4705L31.2579 73.6491C31.9571 74.3543 32.9284 74.7136 33.9138 74.6313C34.8992 74.549 35.7988 74.0336 36.3735 73.2221L53.1917 49.4721Z" fill="#FF0000"/>
<path d="M41.3557 1.42909C44.929 5.59359 47.0909 11.0243 47.0909 16.9643V25.4464C47.0909 26.3833 47.8439 27.1429 48.7727 27.1429H57.1818C63.0707 27.1429 68.4546 29.3235 72.5832 32.9279C68.6012 17.5518 56.5993 5.44565 41.3557 1.42909Z" fill="#FF0000"/>
</svg>
