<svg width="83" height="106" viewBox="0 0 83 106" fill="none" xmlns="http://www.w3.org/2000/svg">
<path fill-rule="evenodd" clip-rule="evenodd" d="M9.43182 0C4.22277 0 0 4.2373 0 9.46428V96.5357C0 101.763 4.22277 106 9.43182 106H73.5682C78.7772 106 83 101.763 83 96.5357V56.7857C83 46.3318 74.5545 37.8571 64.1364 37.8571H54.7045C49.4955 37.8571 45.2727 33.6198 45.2727 28.3929V18.9286C45.2727 8.47461 36.8272 0 26.4091 0H9.43182ZM18.8636 68.1429C18.8636 66.0521 20.5527 64.3571 22.6364 64.3571H60.3636C62.4473 64.3571 64.1364 66.0521 64.1364 68.1429C64.1364 70.2337 62.4473 71.9286 60.3636 71.9286H22.6364C20.5527 71.9286 18.8636 70.2337 18.8636 68.1429ZM22.6364 79.5C20.5527 79.5 18.8636 81.1949 18.8636 83.2857C18.8636 85.3765 20.5527 87.0714 22.6364 87.0714H41.5C43.5836 87.0714 45.2727 85.3765 45.2727 83.2857C45.2727 81.1949 43.5836 79.5 41.5 79.5H22.6364Z" fill="#FF0000"/>
<path d="M46.3854 1.59457C50.3934 6.24127 52.8182 12.3008 52.8182 18.9286V28.3929C52.8182 29.4383 53.6627 30.2857 54.7045 30.2857H64.1364C70.7414 30.2857 76.7801 32.7189 81.4109 36.7406C76.9446 19.5841 63.483 6.0762 46.3854 1.59457Z" fill="#FF0000"/>
</svg>
