<svg width="79" height="79" viewBox="0 0 79 79" fill="none" xmlns="http://www.w3.org/2000/svg">
    <circle cx="39.1857" cy="39.1857" r="38.6857" stroke="#FF0000"/>
    <path fill-rule="evenodd" clip-rule="evenodd" d="M27.3879 27.1766C27.7476 26.0017 28.8275 25.2 30.0505 25.2H33.9286C34.6978 25.2 35.3214 24.5732 35.3214 23.8C35.3214 23.0268 34.6978 22.4 33.9286 22.4H30.0505C27.6046 22.4 25.4447 24.0034 24.7254 26.3531L20.2464 40.9847C20.083 41.5182 20 42.0733 20 42.6315V50.4C20 53.4928 22.4944 56 25.5714 56H53.4286C56.5056 56 59 53.4928 59 50.4V42.6315C59 42.0733 58.917 41.5182 58.7536 40.9847L54.2746 26.3531C53.5553 24.0034 51.3954 22.4 48.9495 22.4H45.0714C44.3022 22.4 43.6786 23.0268 43.6786 23.8C43.6786 24.5732 44.3022 25.2 45.0714 25.2H48.9495C50.1725 25.2 51.2524 26.0017 51.6121 27.1766L55.7213 40.6H50.4396C48.3293 40.6 46.4002 41.7984 45.4564 43.6956L44.9805 44.6522C44.5087 45.6008 43.5441 46.2 42.4889 46.2H36.5111C35.4559 46.2 34.4913 45.6008 34.0195 44.6522L33.5436 43.6956C32.5998 41.7984 30.6707 40.6 28.5604 40.6H23.2787L27.3879 27.1766Z" fill="#FF0000"/>
    <path fill-rule="evenodd" clip-rule="evenodd" d="M39.5 21C40.2693 21 40.8929 21.6268 40.8929 22.4V34.4201L44.0865 31.2101C44.6305 30.6633 45.5124 30.6633 46.0563 31.2101C46.6003 31.7568 46.6003 32.6432 46.0563 33.1899L40.4849 38.7899C39.941 39.3367 39.059 39.3367 38.5151 38.7899L32.9437 33.1899C32.3997 32.6432 32.3997 31.7568 32.9437 31.2101C33.4876 30.6633 34.3695 30.6633 34.9135 31.2101L38.1071 34.4201V22.4C38.1071 21.6268 38.7307 21 39.5 21Z" fill="#FF0000"/>
</svg>
