<svg width="79" height="79" viewBox="0 0 79 79" fill="none" xmlns="http://www.w3.org/2000/svg">
<circle cx="39.1857" cy="39.5572" r="39.1857" fill="#FF0000"/>
<path d="M32.8462 22.8932H28.5627C26.5365 22.8932 24.7472 24.2003 24.1514 26.1159L19.2041 42.0197C19.0688 42.4547 19 42.9072 19 43.3623V51.8062C19 54.3275 21.0664 56.3715 23.6154 56.3715H54.3846C56.9336 56.3715 59 54.3275 59 51.8062V43.3623C59 42.9072 58.9312 42.4547 58.7959 42.0197L53.8486 26.1159C53.2528 24.2003 51.4635 22.8932 49.4373 22.8932H45.1538M19 42.6758H26.9168C28.6649 42.6758 30.2631 43.6528 31.0449 45.1994L31.5705 46.2392C32.3523 47.7858 33.9504 48.7628 35.6986 48.7628H42.3014C44.0496 48.7628 45.6477 47.7858 46.4295 46.2392L46.9551 45.1994C47.7369 43.6528 49.3351 42.6758 51.0832 42.6758H59M39 21.3715V38.1106M39 38.1106L32.8462 32.0236M39 38.1106L45.1538 32.0236" stroke="white" stroke-width="1.5" stroke-linecap="round" stroke-linejoin="round"/>
</svg>
