<svg width="19" height="26" viewBox="0 0 19 26" fill="none" xmlns="http://www.w3.org/2000/svg">
<path fill-rule="evenodd" clip-rule="evenodd" d="M8.97001 25.0639C9.00479 25.0853 9.03213 25.1018 9.05149 25.1134L9.08365 25.1325C9.34028 25.2823 9.65863 25.2811 9.91551 25.133L9.94851 25.1134C9.96787 25.1018 9.99521 25.0853 10.03 25.0639C10.0995 25.021 10.1989 24.9585 10.3239 24.8767C10.5737 24.7132 10.9264 24.472 11.3477 24.1556C12.1889 23.5238 13.3112 22.5865 14.436 21.3622C16.6747 18.9253 19 15.2641 19 10.5555C19 4.97744 14.7467 0.455566 9.5 0.455566C4.25329 0.455566 0 4.97744 0 10.5555C0 15.2641 2.32528 18.9253 4.56398 21.3622C5.68878 22.5865 6.81111 23.5238 7.65227 24.1556C8.07356 24.472 8.42625 24.7132 8.67609 24.8767C8.80106 24.9585 8.90046 25.021 8.97001 25.0639ZM9.5 14.2282C11.4079 14.2282 12.9545 12.5838 12.9545 10.5555C12.9545 8.52709 11.4079 6.88277 9.5 6.88277C7.59211 6.88277 6.04545 8.52709 6.04545 10.5555C6.04545 12.5838 7.59211 14.2282 9.5 14.2282Z" fill="white"/>
</svg>
