<svg width="26" height="27" viewBox="0 0 26 27" fill="none" xmlns="http://www.w3.org/2000/svg">
<path d="M13.0029 6.57754C9.31389 6.57754 6.33832 9.66825 6.33832 13.5C6.33832 17.3318 9.31389 20.4225 13.0029 20.4225C16.6919 20.4225 19.6675 17.3318 19.6675 13.5C19.6675 9.66825 16.6919 6.57754 13.0029 6.57754ZM13.0029 18.0005C10.619 18.0005 8.67005 15.9822 8.67005 13.5C8.67005 11.0178 10.6132 8.9995 13.0029 8.9995C15.3926 8.9995 17.3358 11.0178 17.3358 13.5C17.3358 15.9822 15.3868 18.0005 13.0029 18.0005ZM21.4946 6.29438C21.4946 7.19207 20.7986 7.90902 19.9401 7.90902C19.0759 7.90902 18.3856 7.18604 18.3856 6.29438C18.3856 5.40271 19.0817 4.67974 19.9401 4.67974C20.7986 4.67974 21.4946 5.40271 21.4946 6.29438ZM25.9086 7.93311C25.81 5.77022 25.3344 3.85435 23.8089 2.27586C22.2892 0.697367 20.4447 0.203336 18.3624 0.0948901C16.2163 -0.03163 9.78372 -0.03163 7.63759 0.0948901C5.56107 0.197311 3.71656 0.691342 2.19108 2.26983C0.665589 3.84832 0.195761 5.7642 0.0913553 7.92709C-0.0304518 10.1563 -0.0304518 16.8377 0.0913553 19.0669C0.189961 21.2298 0.665589 23.1457 2.19108 24.7241C3.71656 26.3026 5.55527 26.7967 7.63759 26.9051C9.78372 27.0316 16.2163 27.0316 18.3624 26.9051C20.4447 26.8027 22.2892 26.3087 23.8089 24.7241C25.3286 23.1457 25.8042 21.2298 25.9086 19.0669C26.0305 16.8377 26.0305 10.1623 25.9086 7.93311ZM23.1361 21.4587C22.6837 22.6396 21.8078 23.5493 20.6651 24.0253C18.954 24.7302 14.8938 24.5675 13.0029 24.5675C11.112 24.5675 7.04596 24.7241 5.34066 24.0253C4.20379 23.5553 3.32794 22.6456 2.86972 21.4587C2.19108 19.6814 2.34769 15.4641 2.34769 13.5C2.34769 11.5359 2.19688 7.31256 2.86972 5.54128C3.32214 4.36043 4.19799 3.45069 5.34066 2.97473C7.05176 2.26983 11.112 2.4325 13.0029 2.4325C14.8938 2.4325 18.9598 2.27586 20.6651 2.97473C21.802 3.44466 22.6779 4.3544 23.1361 5.54128C23.8147 7.31859 23.6581 11.5359 23.6581 13.5C23.6581 15.4641 23.8147 19.6874 23.1361 21.4587Z" fill="#FF0000"/>
</svg>
