<svg width="96" height="96" viewBox="0 0 96 96" fill="none" xmlns="http://www.w3.org/2000/svg">
    <path fill-rule="evenodd" clip-rule="evenodd" d="M84.1218 11.8782C77.4271 5.18347 66.5729 5.18347 59.8782 11.8782L39.3067 32.4496C32.612 39.1443 32.612 49.9986 39.3067 56.6933C40.7279 58.1144 42.3304 59.2298 44.0367 60.045C45.7453 60.8612 46.4687 62.9079 45.6525 64.6165C44.8363 66.3251 42.7895 67.0486 41.0809 66.2324C38.682 65.0864 36.4372 63.5211 34.458 61.542C25.0854 52.1694 25.0854 36.9734 34.458 27.6009L55.0294 7.02944C64.402 -2.34315 79.598 -2.34315 88.9706 7.02944C98.3431 16.402 98.3431 31.598 88.9706 40.9706L80.9387 49.0024C79.5997 50.3414 77.4289 50.3414 76.09 49.0024C74.751 47.6635 74.751 45.4926 76.09 44.1537L84.1218 36.1218C90.8165 29.4271 90.8165 18.5729 84.1218 11.8782ZM50.3475 31.3835C51.1637 29.6749 53.2105 28.9514 54.9191 29.7676C57.318 30.9136 59.5628 32.4789 61.542 34.458C70.9146 43.8306 70.9146 59.0265 61.542 68.3991L40.9706 88.9706C31.598 98.3431 16.402 98.3431 7.02944 88.9706C-2.34315 79.598 -2.34315 64.402 7.02944 55.0294L15.0613 46.9976C16.4002 45.6586 18.5711 45.6586 19.91 46.9976C21.249 48.3365 21.249 50.5074 19.91 51.8463L11.8782 59.8782C5.18347 66.5729 5.18347 77.4271 11.8782 84.1218C18.5729 90.8165 29.4271 90.8165 36.1218 84.1218L56.6933 63.5504C63.388 56.8557 63.388 46.0014 56.6933 39.3067C55.2721 37.8856 53.6696 36.7702 51.9633 35.955C50.2547 35.1388 49.5313 33.0921 50.3475 31.3835Z" fill="#FF0000"/>
</svg>
