<svg width="82" height="68" viewBox="0 0 102 84" fill="none" xmlns="http://www.w3.org/2000/svg">
    <path d="M51 33.6C60.3888 33.6 68 26.0784 68 16.8C68 7.52162 60.3888 0 51 0C41.6112 0 34 7.52162 34 16.8C34 26.0784 41.6112 33.6 51 33.6Z" fill="#FF0000" />
    <path d="M28.3333 28C28.3333 34.1856 23.2592 39.2 17 39.2C10.7408 39.2 5.66667 34.1856 5.66667 28C5.66667 21.8144 10.7408 16.8 17 16.8C23.2592 16.8 28.3333 21.8144 28.3333 28Z" fill="#FF0000" />
    <path d="M2.78031 69.0237C1.81937 68.4716 1.07787 67.6021 0.750653 66.5523C0.262685 64.9868 0 63.3237 0 61.6C0 52.3216 7.61116 44.8 17 44.8C19.958 44.8 22.7396 45.5466 25.1623 46.8595C19.2286 52.6336 15.2668 60.3821 14.3638 69.0296C14.2336 70.2766 14.2879 71.5074 14.5065 72.6931C10.2601 72.3271 6.28215 71.0356 2.78031 69.0237Z" fill="#FF0000" />
    <path d="M87.496 72.6928C91.7414 72.3266 95.7185 71.0352 99.2197 69.0237C100.181 68.4716 100.922 67.6021 101.249 66.5523C101.737 64.9868 102 63.3237 102 61.6C102 52.3216 94.3888 44.8 85 44.8C82.0426 44.8 79.2616 45.5463 76.8393 46.8587C82.7734 52.6328 86.7356 60.3817 87.6387 69.0296C87.7689 70.2766 87.7146 71.5073 87.496 72.6928Z" fill="#FF0000" />
    <path d="M96.3333 28C96.3333 34.1856 91.2592 39.2 85 39.2C78.7408 39.2 73.6667 34.1856 73.6667 28C73.6667 21.8144 78.7408 16.8 85 16.8C91.2592 16.8 96.3333 21.8144 96.3333 28Z" fill="#FF0000" />
    <path d="M24.3884 73.869C23.2601 72.8596 22.6623 71.3879 22.8185 69.8918C24.2906 55.7944 36.3465 44.8 51.0008 44.8C65.6552 44.8 77.7111 55.7945 79.1832 69.8919C79.3394 71.3879 78.7415 72.8597 77.6133 73.8691C70.5757 80.165 61.2415 84 51.0008 84C40.7602 84 31.4259 80.165 24.3884 73.869Z" fill="#FF0000" />
</svg>