<svg width="76" height="77" viewBox="0 0 94 95" fill="none" xmlns="http://www.w3.org/2000/svg">
    <path fill-rule="evenodd" clip-rule="evenodd" d="M34.9814 27.5213C47.8755 10.78 68.0137 0.000969907 90.6427 3.03116e-09C91.5331 -3.80071e-05 92.387 0.357406 93.0167 0.993694C93.6463 1.62998 94 2.49299 94 3.39286C94 26.2636 83.3344 46.6179 66.7689 59.6503C67.0151 61.2201 67.1428 62.8281 67.1428 64.4643C67.1428 81.3287 53.6154 95 36.9285 95C35.0744 95 33.5714 93.481 33.5714 91.6071V72.9168C33.53 72.8867 33.4892 72.8554 33.4489 72.8232C29.1875 69.4083 25.3262 65.5059 21.9473 61.1992C21.9144 61.1573 21.8825 61.1147 21.8518 61.0714H3.35714C1.50304 61.0714 0 59.5524 0 57.6786C0 40.8142 13.5274 27.1429 30.2143 27.1429C31.8345 27.1429 33.4269 27.2721 34.9814 27.5213ZM60.4285 23.75C54.8662 23.75 50.3571 28.3071 50.3571 33.9286C50.3571 39.55 54.8662 44.1071 60.4285 44.1071C65.9908 44.1071 70.4999 39.55 70.4999 33.9286C70.4999 28.3071 65.9908 23.75 60.4285 23.75Z" fill="#FF0000"/>
    <path d="M16.8321 71.213C18.3182 70.0926 18.6242 67.9667 17.5156 66.4648C16.407 64.9628 14.3035 64.6536 12.8173 65.774C7.08173 70.0982 3.35714 77.0205 3.35714 84.8211C3.35714 86.0676 3.45246 87.294 3.6367 88.4925C3.86111 89.9522 4.99428 91.0975 6.43865 91.3242C7.62458 91.5105 8.838 91.6068 10.0714 91.6068C17.7899 91.6068 24.6392 87.8426 28.918 82.0459C30.0266 80.544 29.7206 78.4181 28.2344 77.2977C26.7483 76.1772 24.6448 76.4865 23.5362 77.9884C20.4702 82.1421 15.5808 84.8211 10.0714 84.8211C10.0714 79.2531 12.7221 74.3116 16.8321 71.213Z" fill="#FF0000"/>
</svg>
