<svg width="89" height="96" viewBox="0 0 89 96" fill="none" xmlns="http://www.w3.org/2000/svg">
<path fill-rule="evenodd" clip-rule="evenodd" d="M23.6957 20.5714V24H14.509C10.0729 24 6.35266 27.3117 5.88827 31.6741L0.0485578 86.5313C-0.490191 91.5922 3.52285 96 8.66925 96H80.3307C85.4771 96 89.4902 91.5922 88.9514 86.5313L83.1117 31.6741C82.6473 27.3117 78.9271 24 74.491 24H65.3036V20.5714C65.3036 9.21014 55.9894 0 44.4996 0C33.0099 0 23.6957 9.21014 23.6957 20.5714ZM44.4996 6.85714C36.8398 6.85714 30.6303 12.9972 30.6303 20.5714V24H58.369V20.5714C58.369 12.9972 52.1595 6.85714 44.4996 6.85714ZM30.6303 44.5714C30.6303 52.1456 36.8398 58.2857 44.4996 58.2857C52.1595 58.2857 58.369 52.1456 58.369 44.5714V41.1429C58.369 39.2493 59.9213 37.7143 61.8363 37.7143C63.7512 37.7143 65.3036 39.2493 65.3036 41.1429V44.5714C65.3036 55.9327 55.9894 65.1429 44.4996 65.1429C33.0099 65.1429 23.6957 55.9327 23.6957 44.5714V41.1429C23.6957 39.2493 25.2481 37.7143 27.163 37.7143C29.078 37.7143 30.6303 39.2493 30.6303 41.1429V44.5714Z" fill="#FF0000"/>
</svg>
